# Vectary OBJ Export units=mm
mtllib soda.mtl
o 000_Soda
g Soda
usemtl Soda material_c60273fb-1196-4f84-ae4e-7b3f1be3c781
v 39.076 -55.920 86.259
v 33.031 -57.962 60.648
v 60.948 -61.406 59.041
v 62.392 -58.521 91.987
v 33.926 -45.124 96.543
v 62.056 -44.072 106.256
v 60.267 -27.078 95.281
v 30.007 -37.964 28.882
v 56.886 -35.009 16.408
v 58.675 -52.004 27.383
v -18.698 -28.110 71.153
v -12.001 -44.484 65.301
v -17.189 -40.232 97.531
v 124.925 -34.055 68.180
v 133.440 -40.314 63.934
v 124.020 -35.559 47.959
v 125.073 -40.127 63.269
v 123.777 -29.494 52.874
v 131.921 -28.103 51.380
v 133.205 -33.448 69.201
v 132.157 -34.970 46.113
v 140.788 -28.600 65.525
v 139.868 -29.967 45.201
v 140.690 -38.645 48.980
v 141.538 -37.033 68.216
v -17.382 -47.583 69.113
v -10.519 -66.342 63.632
v -16.077 -53.386 98.863
v 34.542 -26.462 38.680
v 30.844 -25.130 64.779
v 57.993 -17.676 63.622
v 56.550 -20.561 30.677
v -19.705 -50.200 32.956
v -16.810 -62.221 59.264
v -17.856 -46.753 60.884
v -19.955 -39.542 29.523
v -18.126 -42.748 61.304
v 91.690 -18.378 29.491
v 97.420 -55.592 89.652
v 94.866 -24.623 92.994
v 93.319 -49.416 26.194
v 91.674 -32.589 15.318
v 96.762 -41.431 103.858
v 93.092 -15.518 61.722
v 96.002 -58.454 57.420
v -6.193 -39.502 18.605
v -6.702 -25.362 33.642
v -4.366 -56.862 29.817
v 31.881 -50.686 36.853
v -13.535 -23.155 66.210
v -2.738 -31.400 99.175
v 33.136 -32.323 88.518
v -0.911 -48.760 110.386
v -0.867 -62.934 95.372
vt 0.19330 1.71160
vt 0.19330 1.65950
vt 0.21680 1.65240
vt 0.21680 1.71950
vt 0.09490 1.68810
vt 0.05540 1.68620
vt 0.06960 1.62430
vt 0.27900 1.81040
vt 0.29800 1.80330
vt 0.29810 1.87040
vt 0.27100 1.89130
vt 0.27690 1.95250
vt 0.21680 1.95860
vt 0.74510 1.68910
vt 0.71660 1.73000
vt 0.79920 1.78990
vt 0.79920 1.73000
vt 0.61800 1.72900
vt 0.19970 1.44270
vt 0.35820 1.85540
vt 0.35230 1.91660
vt 0.31080 1.89510
vt 0.15280 1.72900
vt 0.15280 1.78110
vt 0.12930 1.78820
vt 0.12930 1.72110
vt 0.37640 1.83350
vt 0.38510 1.60620
vt 0.38270 1.85420
vt 0.23330 1.71490
vt 0.07190 1.86070
vt 0.14910 1.60130
vt 0.17600 1.61460
vt 0.21680 1.78890
vt 0.19700 1.83930
vt 0.17010 1.82590
vt 0.19330 1.71160
vt 0.21680 1.65240
vt 0.05540 1.68620
vt 0.29800 1.80330
vt 0.54950 1.37330
vt 0.54950 1.34280
vt 0.54950 1.37330
vt 0.59380 1.34280
vt 0.09490 1.68810
vt 0.10140 1.73700
vt 0.06380 1.74920
vt 0.09490 1.68810
vt 0.06380 1.74920
vt 0.05540 1.68620
vt 0.15280 1.72900
vt 0.12930 1.78820
vt 0.31630 1.83960
vt 0.37050 1.77230
vt 0.54950 1.41470
vt 0.19580 1.34280
vt 0.31320 1.65690
vt 0.36060 1.61720
vt 0.12930 1.62230
vt 0.06960 1.62430
vt 0.12930 1.62230
vt 0.06960 1.62430
vt 0.09970 1.60130
vt 0.41890 1.60840
vt 0.40110 1.66840
vt 0.41890 1.60840
vt 0.40110 1.66840
vt 0.40110 1.60130
vt 0.36060 1.61690
vt 0.35820 1.86490
vt 0.09820 1.85040
vt 0.09450 1.76050
vt 0.09450 1.76050
vt 0.11300 1.78510
vt 0.26480 1.61320
vt 0.26480 1.61320
vt 0.28240 1.63830
vt 0.07190 1.86070
vt 0.07190 1.86070
vt 0.09820 1.85040
vt 0.23330 1.71490
vt 0.23330 1.71490
vt 0.39920 1.81230
vt 0.39920 1.76030
vt 0.41700 1.75230
vt 0.39920 1.81230
vt 0.41700 1.75230
vt 0.41700 1.81940
vt 0.32720 1.34280
vt 0.14920 1.20020
vt 0.32720 1.34280
vt 0.14920 1.20020
vt 0.32720 1.20020
vt 0.32720 1.09530
vt 0.50520 1.23800
vt 0.32720 1.09530
vt 0.50520 1.23800
vt 0.32720 1.23800
vt 0.50520 1.09530
vt 0.68330 1.23800
vt 0.50520 1.09530
vt 0.68330 1.23800
vt 0.50520 1.23800
vt 0.68330 1.09530
vt 0.86130 1.23800
vt 0.68330 1.09530
vt 0.86130 1.23800
vt 0.68330 1.23800
vt 0.32720 1.23800
vt 0.50520 1.23800
vt 0.32720 1.23800
vt 0.32720 1.34280
vt 0.68330 1.23800
vt 0.86130 1.23800
vt 0.68330 1.23800
vt 0.68330 1.34280
vt 0.32720 1.20020
vt 0.14920 1.20020
vt 0.32720 1.20020
vt 0.32720 1.09530
vt 0.50520 1.23800
vt 0.68330 1.23800
vt 0.50520 1.23800
vt 0.50520 1.34280
vt 0.21680 1.80270
vt 0.17600 1.61460
vt 0.21680 1.78890
vt 0.17010 1.82590
vt 0.21680 1.72030
vt 0.21680 1.78890
vt 0.12930 1.89290
vt 0.21690 1.87130
vt 0.21680 1.80270
vt 0.21690 1.87130
vt 0.24670 1.86540
vt 0.13100 1.96120
vt 0.12930 1.89290
vt 0.13100 1.96120
vt 0.15820 1.95580
vt 0.12930 1.72030
vt 0.11300 1.84630
vt 0.12860 1.91700
vt 0.11300 1.90440
vt 0.10780 1.96310
vt 0.08160 1.97610
vt 0.08160 1.91120
vt 0.21690 1.90240
vt 0.27690 1.87130
vt 0.27690 1.87130
vt 0.27100 1.89130
vt 0.41700 1.77660
vt 0.43020 1.75230
vt 0.35230 1.91660
vt 0.29820 1.90560
vt 0.31080 1.89510
vt 0.05540 1.91810
vt 0.08160 1.91120
vt 0.08160 1.97610
vt 0.41440 1.84940
vt 0.39870 1.93140
vt 0.42750 1.92060
vt 0.31640 1.78340
vt 0.37050 1.77230
vt 0.37640 1.77160
vt 0.37640 1.77160
vt 0.37640 1.83320
vt 0.27690 1.88450
vt 0.29260 1.95520
vt 0.27690 1.88450
vt 0.29260 1.95520
vt 0.27690 1.94260
vt 0.31630 1.83960
vt 0.29810 1.84940
vt 0.31640 1.78340
vt 0.11300 1.83310
vt 0.12860 1.75110
vt 0.18520 1.84720
vt 0.20800 1.92810
vt 0.30060 1.66730
vt 0.31320 1.65690
vt 0.31320 1.65690
vt 0.30060 1.66730
vt 0.28240 1.60130
vt 0.29810 1.77210
vt 0.15280 1.78110
vt 0.15280 1.72900
vt 0.10140 1.73700
vt 0.19330 1.65950
vt 0.19330 1.71160
vt 0.23220 1.39280
vt 0.23220 1.39280
vt 0.50520 1.34280
vt 0.63810 1.41470
vt 0.68240 1.41470
vt 0.59380 1.41470
vt 0.38270 1.91220
vt 0.09450 1.90030
vt 0.38510 1.66410
vt 0.26480 1.75230
vt 0.74510 1.73000
vt 0.74510 1.73000
vt 0.77070 1.78990
vt 0.77070 1.78990
vt 0.63430 1.72930
vt 0.63430 1.72930
vt 0.50520 1.09530
vt 0.86130 1.34280
vt 0.86130 1.34280
vt 0.14920 1.34280
vt 0.68330 1.34280
vt 0.68330 1.34280
vt 0.26250 1.66690
vt 0.26250 1.66690
vt 0.86130 1.09530
vt 0.14920 1.09530
vt 0.14920 1.09530
vt 0.68330 1.09530
vt 0.50520 1.34280
vt 0.50520 1.34280
vt 0.54950 1.38420
vt 0.54950 1.38420
vt 0.63810 1.37330
vt 0.14920 1.37330
vt 0.63810 1.37330
vt 0.23430 1.65720
vt 0.23430 1.65720
vt 0.07260 1.80280
vt 0.07260 1.80280
vt 0.15940 1.65690
vt 0.15940 1.65690
vt 0.18680 1.78370
vt 0.18680 1.78370
vt 0.63810 1.34280
vt 0.59380 1.37330
vt 0.26460 1.34280
vt 0.59380 1.37330
vt 0.26770 1.76560
vt 0.26770 1.76560
vt 0.18680 1.72610
vt 0.18520 1.85350
vt 0.12930 1.74340
vt 0.15940 1.71450
vt 0.27910 1.86250
vt 0.27910 1.86250
vt 0.41890 1.66050
vt 0.10590 1.64010
vt 0.10590 1.64010
vt 0.10590 1.64010
vt 0.61800 1.68820
vt 0.61800 1.68820
vt 0.50520 1.38420
vt 0.50520 1.38420
vt 0.79920 1.68910
vt 0.79920 1.68910
vt 0.68240 1.37330
vt 0.68240 1.37330
vt 0.28240 1.72890
vt 0.28240 1.72890
vt 0.82770 1.68910
vt 0.11300 1.87620
vt 0.11300 1.87620
vt 0.63430 1.68850
vt 0.15680 1.89850
vt 0.15680 1.89850
vt 0.15680 1.89850
vt 0.12210 1.68950
vt 0.24660 1.80790
vt 0.24660 1.80790
vt 0.24660 1.80790
vt 0.24660 1.80790
vt 0.59380 1.37330
vt 0.59380 1.37330
vt 0.79920 1.83080
vt 0.79920 1.83080
vt 0.71660 1.68910
vt 0.71660 1.68910
vt 0.63810 1.37330
vt 0.63810 1.37330
vt 0.09870 1.81260
vt 0.09870 1.81260
vt 0.77070 1.83080
vt 0.26180 1.70450
vt 0.82770 1.73000
vt 0.26180 1.70450
vt 0.82770 1.73000
vt 0.39870 1.87330
vt 0.39870 1.87330
vt 0.22940 1.91290
vt 0.22940 1.91290
vt 0.32890 1.79390
vt 0.32890 1.79390
vt 0.12860 1.80920
vt 0.12860 1.80920
vt 0.12930 1.65170
vt 0.41440 1.84940
vt 0.39920 1.75230
vt 0.12930 1.65170
vt 0.12930 1.65170
vt 0.37640 1.75230
vt 0.37640 1.75230
vt 0.35470 1.67840
vt 0.35470 1.67840
vt 0.43020 1.83690
vt 0.39920 1.84110
vt 0.29260 1.87130
vt 0.20800 1.83930
vt 0.41440 1.93330
vt 0.41440 1.93330
vt 0.11300 1.74920
vt 0.11300 1.74920
vt 0.41440 1.93400
vt 0.39920 1.84110
vn -0.13268 -0.98686 0.09221
vn -0.13268 -0.98686 0.09221
vn -0.13268 -0.98686 0.09221
vn -0.99611 -0.07255 0.05000
vn -0.99611 -0.07255 0.05000
vn -0.99611 -0.07255 0.05000
vn -0.99611 -0.07255 0.05000
vn -0.99611 -0.07255 0.05000
vn -0.99611 -0.07255 0.05000
vn -0.28244 0.95663 -0.07138
vn -0.28244 0.95663 -0.07138
vn -0.28244 0.95663 -0.07138
vn 0.14160 0.95169 0.27247
vn 0.14160 0.95169 0.27247
vn 0.14160 0.95169 0.27247
vn -0.13268 -0.98686 0.09221
vn -0.13268 -0.98686 0.09221
vn -0.13268 -0.98686 0.09221
vn -0.24501 -0.68411 0.68700
vn -0.24501 -0.68411 0.68700
vn -0.24501 -0.68411 0.68700
vn -0.24501 -0.68411 0.68700
vn -0.24501 -0.68411 0.68700
vn -0.24501 -0.68411 0.68700
vn -0.28244 0.95663 -0.07138
vn -0.28244 0.95663 -0.07138
vn -0.28244 0.95663 -0.07138
vn -0.99611 -0.07255 0.05000
vn -0.99611 -0.07255 0.05000
vn -0.99611 -0.07255 0.05000
vn -0.26153 0.91998 0.29197
vn -0.26153 0.91998 0.29197
vn -0.26153 0.91998 0.29197
vn -0.15358 -0.95021 -0.27113
vn -0.15358 -0.95021 -0.27113
vn -0.15358 -0.95021 -0.27113
vn -0.40852 0.63651 -0.65419
vn -0.40852 0.63651 -0.65419
vn -0.40852 0.63651 -0.65419
vn -0.40852 0.63651 -0.65419
vn -0.40852 0.63651 -0.65419
vn -0.40852 0.63651 -0.65419
vn 0.05518 -0.95607 -0.28791
vn 0.05518 -0.95607 -0.28791
vn 0.05518 -0.95607 -0.28791
vn -0.05518 0.95607 0.28791
vn -0.05518 0.95607 0.28791
vn -0.05518 0.95607 0.28791
vn -0.08654 0.69907 -0.70980
vn -0.08654 0.69907 -0.70980
vn -0.08654 0.69907 -0.70980
vn 0.08654 -0.69907 0.70980
vn 0.08654 -0.69907 0.70980
vn 0.08654 -0.69907 0.70980
vn -0.07320 -0.99269 -0.09592
vn -0.07320 -0.99269 -0.09592
vn -0.07320 -0.99269 -0.09592
vn -0.41539 0.46221 0.78346
vn -0.41539 0.46221 0.78346
vn -0.41539 0.46221 0.78346
vn -0.19799 -0.97568 0.09411
vn -0.19799 -0.97568 0.09411
vn -0.19799 -0.97568 0.09411
vn -0.33922 -0.66498 0.66538
vn -0.33922 -0.66498 0.66538
vn -0.33922 -0.66498 0.66538
vn -0.20599 0.97236 0.10994
vn -0.20599 0.97236 0.10994
vn -0.20599 0.97236 0.10994
vn -0.42018 -0.52307 -0.74152
vn -0.42018 -0.52307 -0.74152
vn -0.42018 -0.52307 -0.74152
vn -0.49634 0.60413 -0.62344
vn -0.49634 0.60413 -0.62344
vn -0.49634 0.60413 -0.62344
vn 0.58156 -0.81223 0.04562
vn 0.58156 -0.81223 0.04562
vn 0.58156 -0.81223 0.04562
vn 0.45059 0.88740 -0.09743
vn 0.45059 0.88740 -0.09743
vn 0.45059 0.88740 -0.09743
vn -0.05518 0.95607 0.28791
vn -0.05518 0.95607 0.28791
vn -0.05518 0.95607 0.28791
vn 0.00263 0.54275 0.83989
vn 0.00263 0.54275 0.83989
vn 0.00263 0.54275 0.83989
vn 0.00263 0.54275 0.83989
vn 0.00263 0.54275 0.83989
vn 0.00263 0.54275 0.83989
vn 0.05518 -0.95607 -0.28791
vn 0.05518 -0.95607 -0.28791
vn 0.05518 -0.95607 -0.28791
vn -0.00263 -0.54275 -0.83989
vn -0.00263 -0.54275 -0.83989
vn -0.00263 -0.54275 -0.83989
vn -0.00263 -0.54275 -0.83989
vn -0.00263 -0.54275 -0.83989
vn -0.00263 -0.54275 -0.83989
vn 0.76143 -0.44642 0.47003
vn 0.76143 -0.44642 0.47003
vn 0.76143 -0.44642 0.47003
vn 0.08654 -0.69907 0.70980
vn 0.08654 -0.69907 0.70980
vn 0.08654 -0.69907 0.70980
vn 0.07656 -0.99355 0.08367
vn 0.07656 -0.99355 0.08367
vn 0.07656 -0.99355 0.08367
vn 0.07656 -0.99355 0.08367
vn 0.07656 -0.99355 0.08367
vn 0.07656 -0.99355 0.08367
vn -0.08654 0.69907 -0.70980
vn -0.08654 0.69907 -0.70980
vn -0.08654 0.69907 -0.70980
vn -0.07656 0.99355 -0.08367
vn -0.07656 0.99355 -0.08367
vn -0.07656 0.99355 -0.08367
vn -0.07656 0.99355 -0.08367
vn -0.07656 0.99355 -0.08367
vn -0.07656 0.99355 -0.08367
vn 0.99611 0.07255 -0.05000
vn 0.99611 0.07255 -0.05000
vn 0.99611 0.07255 -0.05000
vn 0.76143 -0.44642 0.47003
vn 0.76143 -0.44642 0.47003
vn 0.76143 -0.44642 0.47003
vn 0.69797 -0.33517 -0.63285
vn 0.69797 -0.33517 -0.63285
vn 0.69797 -0.33517 -0.63285
vn 0.14160 0.95169 0.27247
vn 0.14160 0.95169 0.27247
vn 0.14160 0.95169 0.27247
vn 0.12064 0.98844 -0.09186
vn 0.12064 0.98844 -0.09186
vn 0.12064 0.98844 -0.09186
vn 0.99611 0.07255 -0.05000
vn 0.99611 0.07255 -0.05000
vn 0.99611 0.07255 -0.05000
vn 0.00022 0.99619 -0.08724
vn 0.00022 0.99619 -0.08724
vn 0.00022 0.99619 -0.08724
vn 0.15288 -0.98504 0.07955
vn 0.15288 -0.98504 0.07955
vn 0.15288 -0.98504 0.07955
vn -0.32926 -0.53642 -0.77707
vn -0.32926 -0.53642 -0.77707
vn -0.32926 -0.53642 -0.77707
vn -0.32926 -0.53642 -0.77707
vn -0.32926 -0.53642 -0.77707
vn -0.32926 -0.53642 -0.77707
vn -0.15358 -0.95021 -0.27113
vn -0.15358 -0.95021 -0.27113
vn -0.15358 -0.95021 -0.27113
vn -0.32427 0.48883 0.80987
vn -0.32427 0.48883 0.80987
vn -0.32427 0.48883 0.80987
vn -0.32427 0.48883 0.80987
vn -0.32427 0.48883 0.80987
vn -0.32427 0.48883 0.80987
vn -0.26153 0.91998 0.29197
vn -0.26153 0.91998 0.29197
vn -0.26153 0.91998 0.29197
vn 0.05518 -0.95607 -0.28791
vn 0.05518 -0.95607 -0.28791
vn 0.05518 -0.95607 -0.28791
vn 0.07656 -0.99355 0.08367
vn 0.07656 -0.99355 0.08367
vn 0.07656 -0.99355 0.08367
vn 0.05518 -0.95607 -0.28791
vn 0.05518 -0.95607 -0.28791
vn 0.05518 -0.95607 -0.28791
vn -0.05518 0.95607 0.28791
vn -0.05518 0.95607 0.28791
vn -0.05518 0.95607 0.28791
vn -0.07656 0.99355 -0.08367
vn -0.07656 0.99355 -0.08367
vn -0.07656 0.99355 -0.08367
vn 0.46887 0.85535 0.22031
vn 0.46887 0.85535 0.22031
vn 0.46887 0.85535 0.22031
vn 0.56327 -0.78017 -0.27213
vn 0.56327 -0.78017 -0.27213
vn 0.56327 -0.78017 -0.27213
vn 0.56327 -0.78017 -0.27213
vn 0.56327 -0.78017 -0.27213
vn 0.56327 -0.78017 -0.27213
vn 0.05518 -0.95607 -0.28791
vn 0.05518 -0.95607 -0.28791
vn 0.05518 -0.95607 -0.28791
vn 0.31174 0.53844 0.78288
vn 0.31174 0.53844 0.78288
vn 0.31174 0.53844 0.78288
vn 0.31174 0.53844 0.78288
vn 0.31174 0.53844 0.78288
vn 0.31174 0.53844 0.78288
vn 0.39151 -0.64199 0.65921
vn 0.39151 -0.64199 0.65921
vn 0.39151 -0.64199 0.65921
vn 0.21003 -0.68452 0.69808
vn 0.21003 -0.68452 0.69808
vn 0.21003 -0.68452 0.69808
vn 0.30674 -0.49340 -0.81392
vn 0.30674 -0.49340 -0.81392
vn 0.30674 -0.49340 -0.81392
vn 0.30674 -0.49340 -0.81392
vn 0.30674 -0.49340 -0.81392
vn 0.30674 -0.49340 -0.81392
vn 0.22697 0.68704 -0.69026
vn 0.22697 0.68704 -0.69026
vn 0.22697 0.68704 -0.69026
vn 0.03830 0.70261 -0.71055
vn 0.03830 0.70261 -0.71055
vn 0.03830 0.70261 -0.71055
vn -0.00263 -0.54275 -0.83989
vn -0.00263 -0.54275 -0.83989
vn -0.00263 -0.54275 -0.83989
vn -0.08654 0.69907 -0.70980
vn -0.08654 0.69907 -0.70980
vn -0.08654 0.69907 -0.70980
vn -0.08654 0.69907 -0.70980
vn -0.08654 0.69907 -0.70980
vn -0.08654 0.69907 -0.70980
vn 0.08654 -0.69907 0.70980
vn 0.08654 -0.69907 0.70980
vn 0.08654 -0.69907 0.70980
vn 0.08654 -0.69907 0.70980
vn 0.08654 -0.69907 0.70980
vn 0.08654 -0.69907 0.70980
vn 0.00263 0.54275 0.83989
vn 0.00263 0.54275 0.83989
vn 0.00263 0.54275 0.83989
vn 0.08654 -0.69907 0.70980
vn 0.08654 -0.69907 0.70980
vn 0.08654 -0.69907 0.70980
vn 0.63827 0.54836 -0.54029
vn 0.63827 0.54836 -0.54029
vn 0.63827 0.54836 -0.54029
vn 0.63827 0.54836 -0.54029
vn 0.63827 0.54836 -0.54029
vn 0.63827 0.54836 -0.54029
vn -0.08654 0.69907 -0.70980
vn -0.08654 0.69907 -0.70980
vn -0.08654 0.69907 -0.70980
vn 0.70173 0.43712 0.56259
vn 0.70173 0.43712 0.56259
vn 0.70173 0.43712 0.56259
vn -0.05518 0.95607 0.28791
vn -0.05518 0.95607 0.28791
vn -0.05518 0.95607 0.28791
vn 0.46887 0.85535 0.22031
vn 0.46887 0.85535 0.22031
vn 0.46887 0.85535 0.22031
vn -0.05518 0.95607 0.28791
vn -0.05518 0.95607 0.28791
vn -0.05518 0.95607 0.28791
vn -0.32474 0.90005 0.29061
vn -0.32474 0.90005 0.29061
vn -0.32474 0.90005 0.29061
vn -0.32474 0.90005 0.29061
vn -0.32474 0.90005 0.29061
vn -0.32474 0.90005 0.29061
vn 0.24981 -0.92318 -0.29212
vn 0.24981 -0.92318 -0.29212
vn 0.24981 -0.92318 -0.29212
vn 0.24981 -0.92318 -0.29212
vn 0.24981 -0.92318 -0.29212
vn 0.24981 -0.92318 -0.29212
vn 0.27077 -0.95993 0.07221
vn 0.27077 -0.95993 0.07221
vn 0.27077 -0.95993 0.07221
vn -0.21856 -0.93962 -0.26333
vn -0.21856 -0.93962 -0.26333
vn -0.21856 -0.93962 -0.26333
vn -0.21856 -0.93962 -0.26333
vn -0.21856 -0.93962 -0.26333
vn -0.21856 -0.93962 -0.26333
vn -0.99611 -0.07255 0.05000
vn -0.99611 -0.07255 0.05000
vn -0.99611 -0.07255 0.05000
vn -0.34531 0.93611 -0.06683
vn -0.34531 0.93611 -0.06683
vn -0.34531 0.93611 -0.06683
vn -0.33278 0.07598 -0.93994
vn -0.33278 0.07598 -0.93994
vn -0.33278 0.07598 -0.93994
vn -0.22300 -0.11646 0.96784
vn -0.22300 -0.11646 0.96784
vn -0.22300 -0.11646 0.96784
vn -0.20599 0.97236 0.10994
vn -0.20599 0.97236 0.10994
vn -0.20599 0.97236 0.10994
vn -0.22300 -0.11646 0.96784
vn -0.22300 -0.11646 0.96784
vn -0.22300 -0.11646 0.96784
vn -0.20599 0.97236 0.10994
vn -0.20599 0.97236 0.10994
vn -0.20599 0.97236 0.10994
vn -0.20599 0.97236 0.10994
vn -0.20599 0.97236 0.10994
vn -0.20599 0.97236 0.10994
vn -0.07320 -0.99269 -0.09592
vn -0.07320 -0.99269 -0.09592
vn -0.07320 -0.99269 -0.09592
vn -0.07320 -0.99269 -0.09592
vn -0.07320 -0.99269 -0.09592
vn -0.07320 -0.99269 -0.09592
vn -0.33278 0.07598 -0.93994
vn -0.33278 0.07598 -0.93994
vn -0.33278 0.07598 -0.93994
vn -0.22300 -0.11646 0.96784
vn -0.22300 -0.11646 0.96784
vn -0.22300 -0.11646 0.96784
f 1/1/1 2/2/2 3/3/3 
f 11/11/4 12/12/5 13/13/6 
f 26/20/7 27/21/8 28/22/9 
f 29/23/10 30/24/11 31/25/12 
f 50/34/13 51/35/14 52/36/15 
f 1/37/16 3/38/17 4/4/18 
f 5/45/19 1/46/20 4/47/21 
f 5/48/22 4/49/23 6/50/24 
f 29/51/25 31/52/26 32/26/27 
f 33/53/28 34/54/29 35/27/30 
f 30/61/31 7/62/32 31/63/33 
f 2/66/34 10/67/35 3/68/36 
f 8/83/37 29/84/38 32/85/39 
f 8/86/40 32/87/41 9/88/42 
f 10/91/43 45/92/44 3/93/45 
f 7/96/46 44/97/47 31/98/48 
f 32/101/49 42/102/50 9/103/51 
f 4/106/52 43/107/53 6/108/54 
f 12/141/55 53/142/56 13/143/57 
f 13/144/58 53/145/59 51/146/60 
f 27/153/61 54/154/62 28/155/63 
f 28/156/64 54/157/65 53/158/66 
f 35/169/67 46/170/68 33/171/69 
f 33/172/70 46/173/71 48/174/72 
f 36/181/73 47/182/74 46/183/75 
f 17/70/76 39/29/77 45/196/78 
f 18/69/79 38/28/80 44/198/81 
f 7/94/82 40/206/83 44/95/84 
f 6/113/85 43/114/86 40/207/87 
f 6/115/88 40/208/89 7/116/90 
f 10/89/91 41/209/92 45/90/93 
f 9/121/94 42/122/95 41/210/96 
f 9/123/97 41/211/98 10/124/99 
f 14/213/100 39/76/101 17/77/102 
f 4/104/103 39/214/104 43/105/105 
f 3/117/106 45/118/107 39/215/108 
f 3/119/109 39/216/110 4/120/111 
f 32/99/112 38/217/113 42/100/114 
f 31/109/115 44/110/116 38/218/117 
f 31/111/118 38/219/119 32/112/120 
f 22/223/121 24/190/122 23/19/123 
f 14/212/124 43/226/125 39/75/126 
f 16/71/127 41/31/128 42/227/129 
f 50/127/130 52/128/131 30/231/132 
f 47/129/133 50/130/134 30/232/135 
f 22/56/136 25/235/137 24/191/138 
f 47/239/139 30/185/140 29/186/141 
f 54/242/142 2/188/143 1/189/144 
f 49/243/145 8/8/146 9/9/147 
f 49/244/148 9/40/149 10/10/150 
f 2/64/151 49/245/152 10/65/153 
f 52/246/154 5/5/155 6/6/156 
f 52/247/157 6/39/158 7/7/159 
f 30/59/160 52/248/161 7/60/162 
f 15/250/163 16/205/164 21/18/165 
f 25/55/166 15/251/167 24/220/168 
f 24/221/169 15/252/170 21/192/171 
f 22/224/172 19/255/173 20/194/174 
f 23/233/175 19/256/176 22/222/177 
f 18/258/178 44/199/179 40/81/180 
f 17/260/181 41/79/182 16/80/183 
f 17/261/184 45/197/185 41/78/186 
f 15/249/187 17/262/188 16/204/189 
f 51/136/190 53/137/191 5/263/192 
f 51/138/193 5/264/194 52/139/195 
f 53/131/196 54/240/197 5/265/198 
f 5/266/199 54/241/200 1/187/201 
f 48/132/202 46/133/203 8/267/204 
f 48/134/205 8/268/206 49/135/207 
f 46/125/208 47/237/209 8/269/210 
f 8/270/211 47/238/212 29/184/213 
f 24/42/214 21/271/215 23/43/216 
f 23/41/217 21/272/218 19/195/219 
f 21/274/220 18/203/221 19/16/222 
f 20/275/223 14/14/224 17/200/225 
f 20/276/226 17/201/227 15/15/228 
f 22/44/229 20/277/230 25/234/231 
f 25/236/232 20/278/233 15/193/234 
f 16/279/235 38/73/236 18/74/237 
f 16/280/238 42/228/239 38/72/240 
f 21/273/241 16/281/242 18/202/243 
f 14/282/244 40/30/245 43/225/246 
f 19/254/247 14/283/248 20/17/249 
f 18/257/250 40/82/251 14/284/252 
f 19/253/253 18/259/254 14/285/255 
f 13/288/256 51/147/257 50/148/258 
f 13/289/259 50/149/260 11/150/261 
f 27/294/262 48/32/263 49/33/264 
f 27/297/265 49/126/266 2/229/267 
f 54/140/268 27/298/269 2/230/270 
f 33/290/271 48/162/272 27/299/273 
f 33/291/274 27/300/275 34/163/276 
f 36/57/277 37/58/278 50/301/279 
f 50/302/280 47/179/281 36/180/282 
f 11/151/283 50/152/284 12/303/285 
f 34/165/286 12/304/287 35/166/288 
f 35/167/289 12/305/290 46/168/291 
f 37/177/292 12/306/293 50/178/294 
f 28/286/295 53/159/296 12/307/297 
f 28/287/298 12/308/299 26/160/300 
f 36/292/301 46/175/302 12/309/303 
f 36/293/304 12/310/305 37/176/306 
f 26/161/307 12/311/308 27/295/309 
f 34/164/310 27/296/311 12/312/312 
