# Blender v2.79 (sub 0) OBJ File: 'Trash2-noodle.blend'
# www.blender.org
mtllib trash.mtl
o Object
v 0.263479 0.083778 -0.279180
v 0.189059 0.061213 -0.396563
v 0.214442 0.073244 -0.514072
v 0.332632 0.079814 -0.566812
v 0.321865 -0.068492 -1.214688
v 0.332652 0.058162 -1.208430
v 0.347549 0.080630 -1.422983
v 0.362048 -0.029027 -1.457413
v 0.309931 0.084128 0.605815
v 0.324042 -0.077734 0.609673
v 0.116660 -0.051632 0.805528
v 0.089586 0.073808 0.794771
v -0.142828 -0.087316 0.092104
v -0.012890 -0.070407 0.084087
v -0.034561 -0.077180 -0.045696
v -0.063394 -0.091475 -0.136841
v 0.013602 0.057870 0.699243
v 0.214161 0.076500 0.555243
v 0.039315 0.060679 -0.902518
v 0.068576 -0.041593 -0.874783
v 0.307307 -0.046306 -0.628793
v -0.057592 0.091631 -0.957580
v 0.254179 0.079279 -1.341536
v 0.090266 0.083934 -1.565661
v 0.179691 0.014694 -1.403683
v 0.057274 0.000914 -1.498238
v 0.341816 -0.091271 -0.420255
v 0.002455 0.000146 -0.024676
v 0.309892 -0.024139 -0.274058
v 0.326520 -0.079804 0.370057
v 0.296734 0.027958 0.298154
v -0.006174 0.061272 0.072814
v 0.050092 -0.014742 0.806870
v 0.367510 0.049795 -0.441965
v -0.124267 -0.024139 0.198584
v -0.179446 0.044809 0.049462
v -0.141779 -0.038930 -0.144761
v 0.188437 -0.031408 -1.310050
v 0.327093 -0.090785 -1.384402
v 0.228961 -0.084964 -1.404791
v -0.063724 -0.060689 -1.042194
v -0.076853 0.084906 0.193259
v -0.115249 0.083720 -0.128794
v -0.028701 0.076616 -0.051371
v 0.336947 0.085158 0.423380
v 0.091899 -0.014489 -0.955889
v 0.150080 -0.077802 -1.613484
v 0.086506 -0.079833 -1.554437
v 0.017751 -0.067491 0.696299
v 0.091209 0.006842 -1.634192
v 0.197601 0.034062 -1.629994
v -0.052510 -0.068502 -0.774863
v -0.111566 -0.016929 -0.902518
v -0.051499 0.060436 -0.756992
v 0.196192 -0.053118 -0.492217
v -0.007710 -0.087811 -0.911983
v 0.181207 -0.008999 0.533338
v 0.199282 -0.070407 -0.389294
v 0.195065 0.060572 0.438851
v -0.076134 0.053391 -1.023069
v 0.227717 -0.065237 0.474068
vt 0.625265 0.516377
vt 0.603268 0.584257
vt 0.688171 0.575694
vt 0.711188 0.539364
vt 0.405633 0.886082
vt 0.380132 0.925965
vt 0.428326 0.928956
vt 0.458531 0.891654
vt 0.580323 0.111739
vt 0.709421 0.053282
vt 0.642137 0.016116
vt 0.447563 0.089005
vt 0.299049 0.336450
vt 0.351134 0.416842
vt 0.404308 0.383460
vt 0.403568 0.319454
vt 0.660711 0.130280
vt 0.802606 0.064209
vt 0.537689 0.598361
vt 0.451282 0.725789
vt 0.592409 0.751927
vt 0.658746 0.794533
vt 0.498679 0.925110
vt 0.190948 0.947213
vt 0.236612 0.940177
vt 0.245724 0.908865
vt 0.205377 0.888662
vt 0.505458 0.554179
vt 0.549881 0.521746
vt 0.514092 0.375079
vt 0.442436 0.167467
vt 0.570350 0.317392
vt 0.502400 0.186320
vt 0.728549 0.021637
vt 0.577843 0.557202
vt 0.237099 0.304448
vt 0.178280 0.356534
vt 0.276803 0.412190
vt 0.295369 0.880566
vt 0.318064 0.913593
vt 0.361650 0.911349
vt 0.292101 0.778782
vt 0.802893 0.010267
vt 0.802893 0.113116
vt 0.879045 0.059442
vt 0.742085 0.401717
vt 0.630788 0.378338
vt 0.545657 0.157098
vt 0.471828 0.773797
vt 0.266115 0.948328
vt 0.292533 0.961433
vt 0.214675 0.010267
vt 0.224847 0.046816
vt 0.288975 0.010267
vt 0.340236 0.986471
vt 0.365819 0.962433
vt 0.322537 0.702979
vt 0.216795 0.691925
vt 0.263313 0.739008
vt 0.410690 0.575033
vt 0.364883 0.744114
vt 0.421002 0.987272
vt 0.132502 0.044936
vt 0.153635 0.125846
vt 0.241465 0.119526
vt 0.426913 0.535014
vt 0.229169 0.965177
vt 0.138088 0.294095
vt 0.201347 0.161773
vt 0.208576 0.770703
vt 0.286970 0.574228
vt 0.772427 0.718593
vt 0.306433 0.539535
vt 0.679525 0.822139
vt 0.673362 0.268623
vt 0.632862 0.170682
vt 0.181511 0.422253
vt 0.331251 0.141288
vn -0.2827 0.9576 0.0553
vn -0.1857 0.9687 -0.1650
vn -0.1619 0.9707 -0.1778
vn -0.2634 0.9593 0.1017
vn 0.9076 -0.1983 0.3701
vn 0.9802 0.0314 -0.1956
vn 0.9816 0.1027 0.1607
vn 0.9800 0.1384 0.1431
vn 0.7652 0.2248 0.6032
vn 0.5204 0.1562 0.8395
vn 0.5657 0.0796 0.8207
vn 0.7608 0.0405 0.6477
vn 0.1646 -0.9572 0.2383
vn 0.3353 -0.9421 0.0003
vn 0.3139 -0.9488 0.0349
vn 0.0622 -0.9740 0.2178
vn -0.1824 0.9832 0.0039
vn -0.0087 0.9941 -0.1082
vn -0.0353 0.9662 -0.2553
vn -0.2542 0.9594 0.1219
vn 0.8311 -0.0148 -0.5559
vn 0.8118 0.1124 -0.5730
vn 0.6752 0.0208 -0.7373
vn 0.5863 0.0814 -0.8060
vn 0.0499 0.9563 0.2880
vn 0.1367 0.9600 0.2444
vn 0.2474 0.9687 0.0211
vn 0.3311 0.9433 0.0248
vn -0.9116 0.2882 0.2930
vn -0.5452 0.6554 0.5227
vn -0.7750 0.4657 0.4272
vn -0.5050 0.1851 0.8430
vn 0.6315 -0.5346 0.5617
vn 0.5826 -0.6368 0.5051
vn 0.4263 -0.6175 0.6611
vn 0.3236 -0.6431 0.6941
vn 0.6661 -0.1446 -0.7317
vn 0.5185 -0.2169 -0.8271
vn 0.4252 -0.1805 -0.8869
vn 0.7526 -0.1338 -0.6448
vn 0.4813 0.7927 -0.3741
vn 0.5251 0.3759 -0.7635
vn 0.5506 0.6258 -0.5524
vn 0.1444 -0.0606 0.9877
vn 0.0740 -0.2268 0.9711
vn -0.1638 0.3638 0.9170
vn 0.5995 0.7975 0.0679
vn 0.5337 0.8456 -0.0130
vn 0.5152 0.8377 0.1811
vn -0.8817 -0.0146 0.4715
vn -0.9844 -0.1455 0.0987
vn -0.9384 -0.2814 0.2006
vn -0.9393 -0.3403 -0.0439
vn -0.9998 0.0119 -0.0165
vn -0.9626 0.0118 -0.2706
vn 0.4785 -0.5684 0.6693
vn -0.4044 -0.9135 0.0446
vn -0.0759 -0.5288 0.8454
vn -0.4991 -0.7865 -0.3638
vn -0.4421 -0.0341 -0.8963
vn -0.6603 -0.2885 -0.6933
vn -0.4628 0.8740 0.1485
vn -0.4926 0.8699 -0.0271
vn -0.5864 0.7967 0.1464
vn 0.0820 0.9682 -0.2363
vn 0.0934 0.9737 -0.2076
vn -0.1668 0.9484 -0.2695
vn -0.1490 0.9591 0.2406
vn -0.0505 0.9820 -0.1821
vn -0.0205 0.9932 0.1143
vn -0.1828 0.9613 -0.2060
vn -0.2178 0.9685 0.1206
vn -0.1207 0.9902 0.0703
vn 0.7974 -0.1570 0.5827
vn 0.6722 -0.1938 0.7146
vn 0.8666 -0.0540 0.4961
vn -0.0851 -0.9949 -0.0543
vn -0.1753 -0.9323 -0.3163
vn 0.0185 -0.9996 -0.0215
vn 0.0623 0.9598 0.2737
vn -0.0211 0.9915 0.1287
vn -0.3258 0.9358 0.1349
vn -0.5883 -0.4917 0.6420
vn -0.5104 -0.6619 0.5490
vn -0.0904 -0.8593 0.5035
vn -0.1165 -0.2421 -0.9632
vn 0.2873 0.0245 -0.9575
vn -0.0895 -0.3442 -0.9346
vn 0.6727 -0.4281 -0.6035
vn 0.4030 -0.3504 -0.8455
vn 0.5685 -0.3329 -0.7524
vn -0.7572 -0.0304 0.6525
vn -0.9080 0.0662 0.4137
vn -0.9594 -0.1123 0.2588
vn -0.6552 0.1092 0.7475
vn -0.8106 -0.1200 0.5732
vn -0.8723 0.0028 0.4889
vn -0.6470 -0.7409 0.1802
vn -0.8192 -0.5720 0.0416
vn -0.7136 -0.6999 -0.0298
vn -0.8623 -0.2269 -0.4527
vn -0.9623 -0.2704 -0.0299
vn -0.6640 -0.6308 -0.4015
vn 0.3955 -0.9097 0.1265
vn 0.2835 -0.9539 0.0979
vn 0.0761 -0.9912 0.1083
vn 0.7244 -0.0136 0.6892
vn 0.6291 -0.5586 0.5405
vn 0.4388 -0.1127 0.8915
vn 0.9193 0.3086 -0.2441
vn 0.8932 0.1321 -0.4299
vn 0.9732 0.2175 -0.0742
vn 0.9713 -0.2299 0.0615
vn 0.8846 -0.3046 0.3531
vn 0.9944 0.0703 0.0794
vn 0.9201 -0.2338 -0.3142
vn -0.2418 0.8475 -0.4725
vn 0.0007 0.4396 -0.8982
vn -0.0618 0.6355 -0.7697
vn 0.7586 0.1179 0.6408
vn 0.4970 0.5934 0.6331
vn 0.8418 0.5381 0.0433
vn 0.5478 -0.7474 -0.3758
vn 0.0312 -0.9257 -0.3769
vn 0.5162 -0.7828 0.3475
vn -0.5509 -0.2683 0.7902
vn -0.3427 -0.1731 0.9234
vn -0.5762 -0.5341 0.6186
vn -0.8160 -0.4346 0.3812
vn -0.4778 -0.6481 0.5930
vn -0.6081 -0.6714 0.4235
vn 0.1516 0.3711 0.9161
vn 0.6242 0.4996 0.6007
vn 0.5896 0.3376 0.7338
vn 0.5780 0.2835 0.7652
vn 0.7729 0.4081 0.4859
vn 0.6533 0.2487 0.7151
vn 0.8488 0.4729 0.2365
vn 0.6773 0.3918 0.6227
vn 0.8099 0.3092 0.4985
vn -0.8173 -0.0594 -0.5731
vn -0.3804 0.3907 -0.8382
vn -0.6236 0.2467 -0.7418
vn -0.4721 -0.8167 -0.3317
vn -0.3047 -0.8540 -0.4217
vn -0.5032 -0.7567 -0.4173
vn -0.1497 -0.9346 0.3227
vn 0.4336 -0.7409 -0.5129
vn 0.6960 -0.6523 -0.3002
vn 0.5234 -0.7519 -0.4008
vn 0.6421 -0.7499 -0.1595
vn 0.9493 -0.2554 0.1834
vn 0.9416 -0.2418 0.2344
vn -0.9466 -0.1453 -0.2878
vn -0.8169 -0.3675 -0.4446
vn -0.9917 0.1228 -0.0384
vn -0.8200 -0.2976 -0.4890
vn -0.6587 -0.4778 -0.5812
vn -0.1870 -0.6902 -0.6991
vn -0.9728 0.1603 -0.1670
vn -0.8355 0.0981 -0.5407
vn -0.9684 0.2477 -0.0304
vn -0.7765 0.3349 0.5338
vn -0.6645 0.3717 0.6483
vn -0.9511 0.1784 0.2521
vn -0.7432 0.3868 0.5459
vn -0.6899 0.0850 0.7189
vn -0.6529 0.2428 0.7175
vn -0.5323 -0.8451 0.0493
vn -0.4915 -0.8698 0.0444
vn -0.0143 -0.9982 -0.0587
vn 0.5280 -0.8237 -0.2067
vn 0.4443 -0.8413 -0.3081
vn 0.5060 -0.2843 -0.8143
vn 0.6001 -0.7451 -0.2912
vn 0.9848 -0.0949 0.1453
vn 0.8317 -0.2473 0.4972
vn 0.9626 -0.2348 0.1349
vn -0.5211 -0.8223 -0.2286
vn -0.4067 -0.8124 -0.4179
vn -0.7383 -0.6614 -0.1318
vn -0.7997 0.5610 0.2137
vn -0.8471 0.5312 -0.0148
vn -0.9471 0.2936 0.1299
vn -0.7089 0.2643 0.6539
vn -0.3300 0.2013 0.9223
vn -0.7561 -0.1517 0.6366
vn -0.2699 0.9535 0.1340
vn -0.9199 -0.1033 -0.3783
vn -0.9920 0.0873 -0.0916
vn -0.9815 -0.1289 -0.1412
vn -0.9461 0.1655 0.2785
vn -0.6148 0.1268 -0.7784
vn -0.5106 -0.0800 -0.8561
vn -0.3947 -0.0827 -0.9151
vn -0.3503 0.8559 -0.3805
vn -0.6944 0.7024 -0.1562
vn -0.3924 0.8091 -0.4375
vn -0.9557 -0.2733 0.1093
vn -0.3629 0.9011 -0.2374
vn -0.9199 -0.2036 0.3353
vn -0.1665 0.9790 0.1173
vn -0.3709 0.8991 0.2325
vn 0.1766 0.9755 -0.1314
vn 0.2944 0.9556 0.0102
vn 0.4861 0.8582 -0.1649
vn 0.4783 0.8705 0.1161
vn 0.6438 0.6292 -0.4355
vn 0.2743 0.8816 -0.3841
vn 0.5054 0.6786 -0.5329
vn -0.0914 0.9579 0.2722
vn -0.0506 0.9734 -0.2235
vn -0.0272 0.9854 -0.1684
vn -0.8539 -0.0498 -0.5180
vn -0.4003 0.0306 -0.9159
vn -0.7703 0.2115 -0.6015
vn -0.1010 0.9552 0.2783
vn -0.0362 0.9634 -0.2654
vn -0.9307 -0.0168 0.3655
vn -0.9843 0.1352 -0.1133
vn -0.7766 0.5004 0.3827
vn -0.9249 -0.0561 -0.3761
vn -0.9390 -0.2546 -0.2313
vn -0.9615 0.1810 -0.2069
vn -0.7619 0.0932 -0.6410
vn -0.6532 0.5284 0.5424
vn -0.5445 0.1762 0.8201
vn -0.7652 0.5708 0.2979
vn -0.9101 0.2261 -0.3472
vn -0.5833 0.1705 -0.7942
vn -0.7915 0.2607 -0.5527
vn -0.7031 0.1727 -0.6898
vn 0.9768 -0.0023 -0.2140
vn 0.9959 0.0516 0.0742
vn 0.9812 -0.1629 0.1037
vn 0.9266 -0.0197 -0.3756
vn 0.8760 0.1784 -0.4481
vn 0.9876 0.1358 -0.0782
vn 0.9156 0.1994 0.3491
vn 0.8298 -0.2116 -0.5163
vn 0.9909 0.0703 0.1152
vn 0.9977 0.0484 -0.0464
vn 0.8175 -0.3594 -0.4499
vn 0.9943 0.0808 -0.0700
vn 0.7695 -0.4792 -0.4221
vn -0.0305 -0.9908 0.1316
vn 0.1182 -0.9674 -0.2238
vn 0.0038 -1.0000 0.0006
vn -0.1461 -0.9538 0.2627
vn -0.3611 0.9182 -0.1626
vn -0.8391 -0.4792 -0.2575
vn 0.1184 0.6949 -0.7093
vn -0.9103 -0.1573 0.3829
vn -0.8660 -0.1049 0.4889
vn -0.9874 0.0762 0.1385
vn -0.7239 0.1451 -0.6745
vn 0.9056 0.2063 -0.3706
vn 0.5349 0.5554 -0.6367
vn 0.7612 0.2415 -0.6019
vn 0.1225 0.8959 -0.4271
vn 0.3198 0.8739 -0.3660
vn 0.0724 0.8441 -0.5312
vn -0.1428 0.9698 0.1976
vn 0.0094 0.9879 -0.1549
vn -0.0192 0.9821 0.1876
vn 0.6946 -0.2808 0.6624
vn 0.2954 -0.3560 0.8866
vn 0.8281 0.2262 0.5130
vn -0.4080 0.6764 0.6133
vn -0.6955 0.3550 0.6247
vn -0.6904 0.7173 0.0940
vn -0.0485 0.9986 -0.0192
vn 0.1430 0.9500 0.2777
vn 0.0094 0.9991 0.0417
vn -0.4634 -0.6454 0.6072
vn -0.3519 -0.9280 0.1221
vn -0.2877 -0.9568 0.0427
vn -0.2595 -0.9634 0.0668
vn -0.1801 -0.9503 -0.2541
vn -0.1858 -0.9152 -0.3577
vn -0.0376 -0.9888 0.1441
vn -0.0575 -0.9792 0.1945
vn -0.2197 -0.9753 -0.0214
vn 0.0195 -0.9765 -0.2149
vn 0.0497 -0.9650 -0.2576
vn 0.1059 -0.9550 -0.2772
vn 0.0693 -0.9954 -0.0662
vn 0.0837 -0.9256 -0.3692
vn -0.3058 -0.9495 0.0703
vn -0.2383 -0.9657 -0.1032
vn -0.2606 -0.9613 0.0896
vn -0.9535 -0.3015 -0.0037
vn -0.3181 -0.6228 -0.7148
vn -0.6342 0.0763 -0.7694
vn -0.2857 0.1478 0.9468
vn -0.4927 -0.6095 0.6210
vn -0.6376 -0.6512 0.4115
vn -0.5930 -0.6032 0.5334
vn 0.0288 -0.9827 0.1829
vn 0.1100 -0.9635 0.2440
vn -0.1284 -0.9784 0.1619
usemtl Zig_Zag_Shapes_Gray_Dot_8493691c-1bc0-47d1-b6c1-f051e6f9e5ad
s 1
f 1/1/1 4/2/2 3/3/3 2/4/4
f 5/5/5 8/6/6 7/7/7 6/8/8
f 9/9/9 12/10/10 11/11/11 10/12/12
f 13/13/13 16/14/14 15/15/15 14/16/16
f 12/10/17 9/9/18 18/17/19 17/18/20
f 4/2/21 21/19/22 20/20/23 19/21/24
f 22/22/25 19/21/26 6/8/27 23/23/28
f 24/24/29 26/25/30 25/26/31 23/27/32
f 27/28/33 29/29/34 28/30/35 15/15/36
f 30/31/37 14/16/38 32/32/39 31/33/40
f 19/21/41 22/22/42 4/2/43
f 33/34/44 11/11/45 12/10/46
f 34/35/47 4/2/48 1/1/49
f 35/36/50 36/37/51 13/13/52
f 13/13/53 36/37/54 37/38/55
f 38/39/56 40/40/57 39/41/58
f 38/39/59 39/41/60 41/42/61
f 42/43/62 43/44/63 36/45/64
f 1/1/65 2/4/66 43/46/67
f 44/47/68 1/1/69 43/46/70
f 45/48/71 18/17/72 9/9/73
f 6/8/74 46/49/75 5/5/76
f 40/40/77 48/50/78 47/51/79
f 3/3/80 4/2/81 22/22/82
f 33/52/83 49/53/84 11/54/85
f 50/55/86 51/56/87 47/51/88
f 8/6/89 47/51/90 51/56/91
f 52/57/92 54/58/93 53/59/94
f 55/60/95 54/58/96 52/57/97
f 52/57/98 53/59/99 41/42/100
f 40/40/101 38/39/102 25/26/103
f 39/41/104 5/5/105 56/61/106
f 5/5/107 46/49/108 56/61/109
f 32/32/110 28/30/111 44/47/112
f 28/30/113 32/32/114 14/16/115
f 14/16/115 15/15/116 28/30/113
f 24/62/117 51/56/118 50/55/119
f 19/21/120 20/20/121 46/49/122
f 56/61/123 46/49/124 20/20/125
f 40/40/126 25/26/127 26/25/128
f 48/50/129 40/40/130 26/25/131
f 44/47/132 28/30/133 1/1/134
f 28/30/135 29/29/136 1/1/137
f 34/35/138 1/1/139 29/29/140
f 17/63/141 18/64/142 57/65/143
f 37/38/144 58/66/145 16/14/146
f 47/51/79 39/41/147 40/40/77
f 47/51/148 8/6/149 39/41/150
f 39/41/151 8/6/152 5/5/153
f 50/67/154 48/50/155 26/25/156
f 48/50/157 50/67/158 47/51/159
f 24/24/160 50/67/161 26/25/162
f 35/36/163 42/68/164 36/37/165
f 35/36/166 59/69/167 42/68/168
f 52/57/169 41/42/170 56/61/171
f 21/19/172 27/28/173 56/61/174
f 56/61/174 20/20/175 21/19/172
f 34/35/176 29/29/177 27/28/178
f 37/38/179 16/14/180 13/13/181
f 54/58/182 60/70/183 53/59/184
f 55/60/185 3/71/186 54/58/187
f 22/22/82 54/72/188 3/3/80
f 3/71/189 55/60/190 2/73/191
f 2/73/191 55/60/190 58/66/192
f 37/38/193 2/73/194 58/66/195
f 23/23/196 60/74/197 22/22/198
f 54/72/199 22/22/200 60/74/201
f 43/46/202 32/32/203 44/47/204
f 32/32/205 43/46/206 42/75/207
f 31/33/208 32/32/209 45/48/210
f 45/48/211 32/32/212 42/75/213
f 60/70/214 23/27/215 38/39/216
f 59/76/217 45/48/211 42/75/213
f 59/76/218 18/17/72 45/48/71
f 18/64/219 59/69/220 57/65/221
f 60/70/222 41/42/223 53/59/224
f 38/39/216 41/42/225 60/70/214
f 17/18/226 33/34/227 12/10/228
f 37/38/55 36/37/54 43/77/229
f 2/73/230 37/38/231 43/77/232
f 30/31/233 45/48/234 10/12/235
f 30/31/236 31/33/237 45/48/238
f 10/12/235 45/48/234 9/9/239
f 21/19/240 4/2/241 27/28/242
f 4/2/243 34/35/244 27/28/245
f 49/53/246 61/78/247 10/12/248
f 10/12/248 11/54/249 49/53/246
f 49/53/250 57/65/251 61/78/252
f 49/53/253 33/52/254 17/63/255
f 57/65/143 49/53/256 17/63/141
f 8/6/257 51/56/258 7/7/259
f 24/62/260 7/7/261 51/56/262
f 6/8/263 7/7/264 23/23/265
f 6/8/266 19/21/267 46/49/268
f 38/39/269 23/27/270 25/26/271
f 24/62/272 23/23/273 7/7/274
f 27/28/275 55/60/276 56/61/277
f 55/60/276 52/57/278 56/61/277
f 58/66/279 27/28/280 16/14/281
f 27/28/280 15/15/282 16/14/281
f 58/66/283 55/60/284 27/28/285
f 14/16/286 30/31/287 13/13/288
f 61/78/289 30/31/290 10/12/291
f 57/65/292 59/69/293 61/78/294
f 61/78/295 59/69/167 35/36/166
f 61/78/296 35/36/297 13/13/298
f 30/31/299 61/78/300 13/13/301
