# Vectary OBJ Export units=mm
mtllib straw.mtl
o 000_Cylinder
g Cylinder
usemtl Cylinder material_86d8525f-5fd8-424b-9f93-1364fd93190a
v 0.459 -19.888 -0.833
v 0.597 -19.893 0.893
v -0.669 -19.893 0.815
v -0.852 -19.891 -0.688
v 0.918 -19.888 -0.090
v 0.590 -19.884 0.590
v -0.416 -19.883 0.778
v -0.778 -19.883 -0.416
v -0.809 16.451 0.076
v 0.339 16.132 -1.024
v -0.963 16.337 0.407
v -0.373 16.228 0.990
v 0.529 16.436 0.703
v -0.335 17.606 0.107
v 0.565 16.668 -1.080
v 0.025 17.173 1.002
v -0.315 16.472 0.740
v -0.227 16.774 -0.776
v 0.211 16.417 -1.108
v -0.535 16.535 -0.963
v -0.603 16.914 -0.690
v 0.864 16.139 0.144
v 0.311 16.572 -1.115
v 0.402 16.151 1.019
v -0.763 17.009 0.549
v -0.926 16.673 0.552
v 0.971 16.008 0.458
v -0.631 17.356 -0.339
v 0.711 17.657 -0.828
v -0.175 16.974 1.002
v 0.645 18.025 0.040
v 0.707 17.695 0.774
v 0.000 17.544 0.339
v -0.011 17.762 0.549
v 0.641 16.464 1.014
v 0.902 16.368 0.847
v 0.085 17.602 -0.690
v 0.157 17.603 -0.378
v 0.550 17.260 0.779
v 0.464 17.534 -0.963
v 0.968 16.076 -0.533
v 0.520 16.454 -0.717
v 0.865 16.678 -1.038
v 9.740 19.485 -0.621
v 9.996 18.192 -0.838
v 9.742 19.470 0.558
v 0.807 16.204 -0.348
v 9.852 18.923 0.972
v 10.049 17.923 0.528
v -0.403 16.236 -0.979
v -0.974 16.341 -0.379
v 0.469 16.317 1.064
v 1.017 15.955 -0.384
v -0.093 17.316 -0.882
v 1.069 15.935 0.235
v 0.326 17.925 0.552
v 0.792 16.832 1.078
vt 1.00000 0.00000
vt 1.00000 0.00000
vt 1.00000 0.00000
vt 1.00000 1.00000
vt 1.00000 1.00000
vt 1.00000 1.00000
vt 1.00000 1.00000
vt 0.00000 0.00000
vt 1.00000 0.00000
vt 1.00000 0.00000
vt 0.00000 0.00000
vt 0.00000 0.00000
vt 0.00000 0.00000
vt 0.00000 0.00000
vt 1.00000 0.00000
vt 0.00000 0.00000
vt 0.00000 0.00000
vt 1.00000 0.00000
vt 1.00000 0.00000
vt 0.00000 1.00000
vt 0.00000 0.00000
vt 0.00000 0.00000
vt 1.00000 1.00000
vt 1.00000 1.00000
vt 0.00000 0.00000
vt 1.00000 1.00000
vt 0.00000 1.00000
vt 0.00000 1.00000
vt 0.00000 1.00000
vt 1.00000 1.00000
vt 1.00000 1.00000
vt 1.00000 1.00000
vt 0.00000 0.00000
vt 0.00000 0.00000
vt 0.00000 0.00000
vt 0.00000 1.00000
vt 0.00000 1.00000
vt 0.00000 1.00000
vt 1.00000 1.00000
vt 0.00000 0.00000
vt 1.00000 0.00000
vt 0.00000 1.00000
vt 1.00000 1.00000
vt 1.00000 0.00000
vt 0.00000 1.00000
vt 1.00000 0.00000
vt 0.00000 0.00000
vt 1.00000 0.00000
vt 1.00000 0.00000
vt 0.00000 0.00000
vt 1.00000 1.00000
vt 0.00000 0.00000
vt 0.00000 0.00000
vt 0.00000 0.00000
vt 1.00000 1.00000
vt 1.00000 1.00000
vt 1.00000 1.00000
vt 0.00000 0.00000
vt 0.00000 0.00000
vt 0.00000 1.00000
vt 1.00000 1.00000
vt 1.00000 1.00000
vt 1.00000 0.00000
vt 1.00000 1.00000
vt 1.00000 1.00000
vt 1.00000 1.00000
vt 1.00000 0.00000
vt 0.00000 1.00000
vt 0.00000 1.00000
vt 0.00000 1.00000
vt 0.00000 0.00000
vt 0.00000 0.00000
vt 1.00000 1.00000
vt 0.00000 0.00000
vt 1.00000 1.00000
vt 0.00000 0.00000
vt 1.00000 0.00000
vt 0.00000 1.00000
vt 0.00000 0.00000
vt 0.00000 0.00000
vt 0.00000 1.00000
vt 0.00000 1.00000
vt 0.00000 1.00000
vt 0.00000 0.00000
vt 1.00000 1.00000
vt 1.00000 0.00000
vt 0.00000 0.00000
vt 1.00000 0.00000
vt 1.00000 1.00000
vt 0.00000 1.00000
vt 1.00000 0.00000
vt 1.00000 1.00000
vt 1.00000 1.00000
vt 0.00000 1.00000
vt 0.00000 1.00000
vt 1.00000 0.00000
vt 1.00000 0.00000
vt 0.00000 0.00000
vt 0.00000 1.00000
vt 0.00000 0.00000
vt 0.00000 0.00000
vt 0.00000 1.00000
vt 1.00000 1.00000
vt 1.00000 0.00000
vt 1.00000 1.00000
vt 0.00000 1.00000
vt 0.00000 1.00000
vt 1.00000 1.00000
vt 1.00000 1.00000
vt 1.00000 0.00000
vt 0.00000 1.00000
vt 0.00000 1.00000
vt 0.00000 0.00000
vt 1.00000 0.00000
vt 1.00000 1.00000
vt 1.00000 1.00000
vt 0.00000 1.00000
vt 1.00000 0.00000
vt 1.00000 0.00000
vt 0.00000 1.00000
vt 1.00000 1.00000
vt 0.00000 1.00000
vt 1.00000 0.00000
vt 1.00000 1.00000
vt 1.00000 0.00000
vt 0.00000 0.00000
vt 0.00000 0.00000
vt 0.00000 1.00000
vt 0.00000 1.00000
vt 0.00000 0.00000
vt 0.00000 0.00000
vt 0.00000 1.00000
vt 1.00000 0.00000
vt 1.00000 1.00000
vt 0.00000 1.00000
vt 0.00000 0.00000
vt 0.00000 0.00000
vt 0.00000 1.00000
vt 0.00000 1.00000
vt 1.00000 0.00000
vt 1.00000 1.00000
vt 1.00000 1.00000
vt 1.00000 0.00000
vt 1.00000 1.00000
vt 1.00000 1.00000
vt 1.00000 0.00000
vt 1.00000 1.00000
vt 1.00000 1.00000
vt 1.00000 1.00000
vt 1.00000 0.00000
vt 1.00000 1.00000
vt 1.00000 1.00000
vt 1.00000 0.00000
vt 0.00000 1.00000
vt 0.00000 1.00000
vt 1.00000 1.00000
vt 0.00000 0.00000
vt 0.00000 0.00000
vt 0.00000 1.00000
vt 0.00000 1.00000
vt 0.00000 0.00000
vt 0.00000 0.00000
vt 0.00000 0.00000
vt 0.00000 0.00000
vt 0.00000 1.00000
vt 0.00000 0.00000
vt 1.00000 0.00000
vt 1.00000 1.00000
vt 1.00000 1.00000
vt 1.00000 1.00000
vt 1.00000 1.00000
vt 1.00000 0.00000
vt 1.00000 1.00000
vt 1.00000 1.00000
vt 1.00000 0.00000
vt 0.00000 0.00000
vt 0.00000 0.00000
vt 0.00000 0.00000
vt 0.00000 1.00000
vt 1.00000 0.00000
vt 1.00000 1.00000
vt 0.00000 0.00000
vt 0.00000 0.00000
vt 0.00000 1.00000
vt 0.00000 0.00000
vt 0.00000 1.00000
vt 0.00000 0.00000
vt 0.00000 0.00000
vt 1.00000 0.00000
vt 1.00000 1.00000
vt 1.00000 1.00000
vt 0.00000 0.00000
vt 1.00000 0.00000
vt 1.00000 0.00000
vt 1.00000 1.00000
vt 0.00000 0.00000
vt 0.00000 0.00000
vt 0.00000 1.00000
vt 1.00000 0.00000
vt 1.00000 1.00000
vt 1.00000 0.00000
vt 0.00000 0.00000
vt 0.00000 0.00000
vt 0.00000 0.00000
vt 0.00000 1.00000
vt 1.00000 0.00000
vt 1.00000 1.00000
vt 1.00000 1.00000
vt 1.00000 1.00000
vt 0.00000 1.00000
vt 0.00000 1.00000
vt 0.00000 1.00000
vt 0.00000 1.00000
vt 1.00000 1.00000
vt 1.00000 0.00000
vt 0.00000 0.00000
vt 1.00000 1.00000
vt 0.00000 1.00000
vt 0.00000 0.00000
vt 0.00000 0.00000
vt 0.00000 0.00000
vt 0.00000 1.00000
vt 0.00000 0.00000
vt 1.00000 0.00000
vt 0.00000 0.00000
vt 1.00000 1.00000
vt 0.00000 1.00000
vt 0.00000 0.00000
vt 1.00000 0.00000
vt 0.00000 0.00000
vt 0.00000 0.00000
vt 1.00000 0.00000
vt 0.00000 1.00000
vt 1.00000 0.00000
vt 0.00000 0.00000
vt 1.00000 0.00000
vt 1.00000 1.00000
vt 1.00000 0.00000
vt 0.00000 1.00000
vt 0.00000 0.00000
vt 1.00000 1.00000
vt 0.00000 1.00000
vt 1.00000 0.00000
vt 0.00000 0.00000
vt 1.00000 1.00000
vt 0.00000 1.00000
vt 1.00000 1.00000
vt 1.00000 0.00000
vt 1.00000 1.00000
vt 1.00000 1.00000
vt 1.00000 0.00000
vt 1.00000 1.00000
vt 0.00000 0.00000
vt 0.00000 1.00000
vt 0.00000 1.00000
vt 0.00000 0.00000
vt 1.00000 0.00000
vt 1.00000 1.00000
vt 1.00000 1.00000
vt 1.00000 0.00000
vt 1.00000 1.00000
vt 0.00000 0.00000
vt 1.00000 1.00000
vt 1.00000 1.00000
vt 1.00000 0.00000
vt 1.00000 1.00000
vt 0.00000 1.00000
vt 1.00000 1.00000
vt 1.00000 1.00000
vt 1.00000 1.00000
vt 1.00000 0.00000
vt 0.00000 1.00000
vt 1.00000 1.00000
vt 1.00000 0.00000
vt 0.00000 0.00000
vt 1.00000 1.00000
vt 1.00000 0.00000
vt 1.00000 0.00000
vt 1.00000 1.00000
vt 0.00000 0.00000
vt 0.00000 0.00000
vt 0.00000 1.00000
vt 1.00000 1.00000
vt 0.00000 0.00000
vt 1.00000 0.00000
vt 0.00000 0.00000
vt 0.00000 0.00000
vt 0.00000 0.00000
vt 0.00000 1.00000
vt 0.00000 0.00000
vt 1.00000 1.00000
vt 1.00000 0.00000
vt 1.00000 0.00000
vt 1.00000 0.00000
vt 0.00000 0.00000
vt 1.00000 0.00000
vt 1.00000 1.00000
vt 0.00000 1.00000
vt 0.00000 0.00000
vt 1.00000 1.00000
vt 1.00000 0.00000
vt 1.00000 1.00000
vt 1.00000 0.00000
vt 1.00000 1.00000
vt 0.00000 0.00000
vt 0.00000 1.00000
vt 0.00000 0.00000
vt 0.00000 0.00000
vt 1.00000 0.00000
vt 0.00000 0.00000
vt 0.00000 1.00000
vt 1.00000 1.00000
vn -0.29031 0.00000 -0.95693
vn -0.29031 0.00000 -0.95693
vn -0.29031 0.00000 -0.95693
vn -0.29031 0.00000 -0.95693
vn -0.54898 0.78417 -0.28929
vn -0.54898 0.78417 -0.28929
vn -0.54898 0.78417 -0.28929
vn -0.54898 0.78417 -0.28929
vn -0.62403 0.62423 0.47002
vn -0.62403 0.62423 0.47002
vn -0.62403 0.62423 0.47002
vn -0.62403 0.62423 0.47002
vn -0.26401 0.12320 0.95662
vn -0.26401 0.12320 0.95662
vn -0.26401 0.12320 0.95662
vn -0.26401 0.12320 0.95662
vn 0.04560 -0.99886 -0.01380
vn 0.04560 -0.99886 -0.01380
vn 0.04560 -0.99886 -0.01380
vn 0.04560 -0.99886 -0.01380
vn -0.40441 0.86762 -0.28931
vn -0.40441 0.86762 -0.28931
vn -0.40441 0.86762 -0.28931
vn -0.40441 0.86762 -0.28931
vn -0.24759 0.92467 -0.28929
vn -0.24759 0.92467 -0.28929
vn -0.24759 0.92467 -0.28929
vn -0.24759 0.92467 -0.28929
vn -0.09800 0.00000 0.99519
vn -0.09800 0.00000 0.99519
vn -0.09800 0.00000 0.99519
vn -0.09800 0.00000 0.99519
vn -0.38719 0.27129 -0.88118
vn -0.38719 0.27129 -0.88118
vn -0.38719 0.27129 -0.88118
vn -0.38719 0.27129 -0.88118
vn -0.05620 0.28481 -0.95693
vn -0.05620 0.28481 -0.95693
vn -0.05620 0.28481 -0.95693
vn -0.05620 0.28481 -0.95693
vn -0.86749 0.40469 -0.28930
vn -0.86749 0.40469 -0.28930
vn -0.86749 0.40469 -0.28930
vn -0.86749 0.40469 -0.28930
vn -0.12310 0.26401 0.95663
vn -0.12310 0.26401 0.95663
vn -0.12310 0.26401 0.95663
vn -0.12310 0.26401 0.95663
vn -0.33428 0.33438 -0.88116
vn -0.33428 0.33438 -0.88116
vn -0.33428 0.33438 -0.88116
vn -0.33428 0.33438 -0.88116
vn 0.19271 -0.97635 -0.09800
vn 0.19271 -0.97635 -0.09800
vn 0.19271 -0.97635 -0.09800
vn 0.19271 -0.97635 -0.09800
vn -0.01900 0.09620 0.99518
vn -0.01900 0.09620 0.99518
vn -0.01900 0.09620 0.99518
vn -0.01900 0.09620 0.99518
vn 0.09800 0.00000 -0.99519
vn 0.09800 0.00000 -0.99519
vn 0.09800 0.00000 -0.99519
vn -0.95693 0.00000 0.29031
vn -0.95693 0.00000 0.29031
vn -0.95693 0.00000 0.29031
vn -0.01380 -0.99886 -0.04560
vn -0.01380 -0.99886 -0.04560
vn -0.01380 -0.99886 -0.04560
vn 0.19959 -0.42859 0.88118
vn 0.19959 -0.42859 0.88118
vn 0.19959 -0.42859 0.88118
vn -0.27110 0.38730 -0.88120
vn -0.27110 0.38730 -0.88120
vn -0.27110 0.38730 -0.88120
vn -0.74776 0.20049 -0.63297
vn -0.74776 0.20049 -0.63297
vn -0.74776 0.20049 -0.63297
vn -0.88192 0.00000 0.47141
vn -0.88192 0.00000 0.47141
vn -0.88192 0.00000 0.47141
vn -0.77300 0.00000 0.63440
vn -0.77300 0.00000 0.63440
vn -0.77300 0.00000 0.63440
vn 0.00470 -0.99887 -0.04740
vn 0.00470 -0.99887 -0.04740
vn 0.00470 -0.99887 -0.04740
vn -0.28140 0.07550 0.95661
vn -0.28140 0.07550 0.95661
vn -0.28140 0.07550 0.95661
vn 0.05620 -0.28481 0.95693
vn 0.05620 -0.28481 0.95693
vn 0.05620 -0.28481 0.95693
vn 0.09800 0.00000 -0.99519
vn 0.09800 0.00000 -0.99519
vn 0.09800 0.00000 -0.99519
vn -0.99519 0.00000 -0.09800
vn -0.99519 0.00000 -0.09800
vn -0.99519 0.00000 -0.09800
vn -0.12290 0.62240 0.77299
vn -0.12290 0.62240 0.77299
vn -0.12290 0.62240 0.77299
vn -0.61412 0.16471 0.77183
vn -0.61412 0.16471 0.77183
vn -0.61412 0.16471 0.77183
vn -0.83156 -0.41998 -0.36348
vn -0.83156 -0.41998 -0.36348
vn -0.83156 -0.41998 -0.36348
vn -0.18530 0.93882 0.29031
vn -0.18530 0.93882 0.29031
vn -0.18530 0.93882 0.29031
vn 0.70350 -0.32330 -0.63290
vn 0.70350 -0.32330 -0.63290
vn 0.70350 -0.32330 -0.63290
vn -0.01900 0.09620 -0.99518
vn -0.01900 0.09620 -0.99518
vn -0.01900 0.09620 -0.99518
vn 0.01900 -0.09620 -0.99518
vn 0.01900 -0.09620 -0.99518
vn 0.01900 -0.09620 -0.99518
vn 0.45231 -0.44691 -0.77181
vn 0.45231 -0.44691 -0.77181
vn 0.45231 -0.44691 -0.77181
vn -0.23861 0.16711 0.95663
vn -0.23861 0.16711 0.95663
vn -0.23861 0.16711 0.95663
vn 0.42839 -0.20000 0.88118
vn 0.42839 -0.20000 0.88118
vn 0.42839 -0.20000 0.88118
vn 0.09130 -0.46250 -0.88190
vn 0.09130 -0.46250 -0.88190
vn 0.09130 -0.46250 -0.88190
vn 0.77300 0.00000 -0.63440
vn 0.77300 0.00000 -0.63440
vn 0.77300 0.00000 -0.63440
vn 0.88192 0.00000 0.47141
vn 0.88192 0.00000 0.47141
vn 0.88192 0.00000 0.47141
vn 0.95693 0.00000 -0.29031
vn 0.95693 0.00000 -0.29031
vn 0.95693 0.00000 -0.29031
vn 0.70698 0.70718 -0.00860
vn 0.70698 0.70718 -0.00860
vn 0.70698 0.70718 -0.00860
vn -0.70718 -0.70698 -0.00860
vn -0.70718 -0.70698 -0.00860
vn -0.70718 -0.70698 -0.00860
vn -0.77437 -0.55198 -0.30929
vn -0.77437 -0.55198 -0.30929
vn -0.77437 -0.55198 -0.30929
vn -0.02540 0.09501 -0.99515
vn -0.02540 0.09501 -0.99515
vn -0.02540 0.09501 -0.99515
vn 0.01900 -0.09620 0.99518
vn 0.01900 -0.09620 0.99518
vn 0.01900 -0.09620 0.99518
vn -0.09130 0.46250 0.88190
vn -0.09130 0.46250 0.88190
vn -0.09130 0.46250 0.88190
vn -0.77300 0.00000 -0.63440
vn -0.77300 0.00000 -0.63440
vn -0.77300 0.00000 -0.63440
vn -0.95693 0.00000 -0.29031
vn -0.95693 0.00000 -0.29031
vn -0.95693 0.00000 -0.29031
vn -0.42848 0.19989 -0.88116
vn -0.42848 0.19989 -0.88116
vn -0.42848 0.19989 -0.88116
vn -0.09500 0.02550 -0.99515
vn -0.09500 0.02550 -0.99515
vn -0.09500 0.02550 -0.99515
vn 0.42000 0.83159 -0.36340
vn 0.42000 0.83159 -0.36340
vn 0.42000 0.83159 -0.36340
vn -0.19970 0.42850 -0.88120
vn -0.19970 0.42850 -0.88120
vn -0.19970 0.42850 -0.88120
vn -0.19271 0.97635 0.09800
vn -0.19271 0.97635 0.09800
vn -0.19271 0.97635 0.09800
vn -0.12290 0.62240 -0.77299
vn -0.12290 0.62240 -0.77299
vn -0.12290 0.62240 -0.77299
vn -0.14970 0.75838 -0.63439
vn -0.14970 0.75838 -0.63439
vn -0.14970 0.75838 -0.63439
vn -0.04560 -0.99886 -0.01380
vn -0.04560 -0.99886 -0.01380
vn -0.04560 -0.99886 -0.01380
vn 0.47141 0.00000 0.88192
vn 0.47141 0.00000 0.88192
vn 0.47141 0.00000 0.88192
vn 0.95693 0.00000 0.29031
vn 0.95693 0.00000 0.29031
vn 0.95693 0.00000 0.29031
vn -0.67677 0.67697 -0.28929
vn -0.67677 0.67697 -0.28929
vn -0.67677 0.67697 -0.28929
vn -0.19271 0.97635 0.09800
vn -0.19271 0.97635 0.09800
vn -0.19271 0.97635 0.09800
vn -0.17080 0.86522 -0.47141
vn -0.17080 0.86522 -0.47141
vn -0.17080 0.86522 -0.47141
vn 0.63440 0.00000 -0.77300
vn 0.63440 0.00000 -0.77300
vn 0.63440 0.00000 -0.77300
vn 0.52060 -0.36510 -0.77180
vn 0.52060 -0.36510 -0.77180
vn 0.52060 -0.36510 -0.77180
vn 0.55198 0.77437 -0.30929
vn 0.55198 0.77437 -0.30929
vn 0.55198 0.77437 -0.30929
vn 0.68164 0.72875 -0.06550
vn 0.68164 0.72875 -0.06550
vn 0.68164 0.72875 -0.06550
vn 0.88192 0.00000 -0.47141
vn 0.88192 0.00000 -0.47141
vn 0.88192 0.00000 -0.47141
vn 0.99519 0.00000 -0.09800
vn 0.99519 0.00000 -0.09800
vn 0.99519 0.00000 -0.09800
vn -0.16700 0.23871 0.95662
vn -0.16700 0.23871 0.95662
vn -0.16700 0.23871 0.95662
vn -0.50620 0.72310 0.47000
vn -0.50620 0.72310 0.47000
vn -0.50620 0.72310 0.47000
vn -0.72297 0.50638 0.46998
vn -0.72297 0.50638 0.46998
vn -0.72297 0.50638 0.46998
vn -0.78405 0.54916 -0.28928
vn -0.78405 0.54916 -0.28928
vn -0.78405 0.54916 -0.28928
vn 0.78693 -0.54502 0.28931
vn 0.78693 -0.54502 0.28931
vn 0.78693 -0.54502 0.28931
vn 0.81811 -0.56671 -0.09770
vn 0.81811 -0.56671 -0.09770
vn 0.81811 -0.56671 -0.09770
vn -0.92458 0.24790 -0.28930
vn -0.92458 0.24790 -0.28930
vn -0.92458 0.24790 -0.28930
vn -0.96128 0.25770 0.09760
vn -0.96128 0.25770 0.09760
vn -0.96128 0.25770 0.09760
vn -0.22831 0.85262 0.47001
vn -0.22831 0.85262 0.47001
vn -0.22831 0.85262 0.47001
vn -0.07530 0.28141 0.95663
vn -0.07530 0.28141 0.95663
vn -0.07530 0.28141 0.95663
vn -0.09800 0.00000 -0.99519
vn -0.09800 0.00000 -0.99519
vn -0.09800 0.00000 -0.99519
vn -0.63440 0.00000 -0.77300
vn -0.63440 0.00000 -0.77300
vn -0.63440 0.00000 -0.77300
vn 0.12290 -0.62240 0.77299
vn 0.12290 -0.62240 0.77299
vn 0.12290 -0.62240 0.77299
vn 0.73998 0.65318 -0.16059
vn 0.73998 0.65318 -0.16059
vn 0.73998 0.65318 -0.16059
vn 0.64674 0.75844 0.08060
vn 0.64674 0.75844 0.08060
vn 0.64674 0.75844 0.08060
vn 0.68164 0.72875 0.06550
vn 0.68164 0.72875 0.06550
vn 0.68164 0.72875 0.06550
vn -0.20591 0.20601 0.95664
vn -0.20591 0.20601 0.95664
vn -0.20591 0.20601 0.95664
vn -0.72870 -0.68170 0.06550
vn -0.72870 -0.68170 0.06550
vn -0.72870 -0.68170 0.06550
vn 0.44931 -0.44991 -0.77182
vn 0.44931 -0.44991 -0.77182
vn 0.44931 -0.44991 -0.77182
vn 0.17080 -0.86522 -0.47141
vn 0.17080 -0.86522 -0.47141
vn 0.17080 -0.86522 -0.47141
vn -0.12290 0.62240 0.77299
vn -0.12290 0.62240 0.77299
vn -0.12290 0.62240 0.77299
vn -0.18530 0.93882 0.29031
vn -0.18530 0.93882 0.29031
vn -0.18530 0.93882 0.29031
vn 0.19271 -0.97635 -0.09800
vn 0.19271 -0.97635 -0.09800
vn 0.19271 -0.97635 -0.09800
vn 0.18530 -0.93882 -0.29031
vn 0.18530 -0.93882 -0.29031
vn 0.18530 -0.93882 -0.29031
vn -0.77300 0.00000 0.63440
vn -0.77300 0.00000 0.63440
vn -0.77300 0.00000 0.63440
vn -0.63440 0.00000 0.77300
vn -0.63440 0.00000 0.77300
vn -0.63440 0.00000 0.77300
vn 0.01380 -0.99886 0.04560
vn 0.01380 -0.99886 0.04560
vn 0.01380 -0.99886 0.04560
vn 0.09130 -0.46250 0.88190
vn 0.09130 -0.46250 0.88190
vn 0.09130 -0.46250 0.88190
vn 0.29031 0.00000 0.95693
vn 0.29031 0.00000 0.95693
vn 0.29031 0.00000 0.95693
vn -0.09800 0.00000 0.99519
vn -0.09800 0.00000 0.99519
vn -0.09800 0.00000 0.99519
f 13/23/2 6/94/4 7/22/3 39/88/1 
f 37/134/6 54/112/7 14/131/8 34/143/5 
f 14/62/10 28/129/11 30/178/12 16/9/9 
f 25/6/14 26/28/15 24/72/16 52/215/13 
f 7/226/18 3/42/19 4/79/20 8/229/17 
f 40/245/22 37/68/23 34/11/24 56/153/21 
f 29/237/26 40/246/27 56/17/28 31/18/25 
f 12/85/30 3/159/31 2/59/32 24/251/29 
f 23/31/34 19/106/35 21/136/36 28/260/33 
f 45/103/38 43/218/39 29/87/40 44/265/37 
f 21/7/42 20/27/43 26/280/44 25/274/41 
f 56/283/46 34/272/47 35/12/48 57/123/45 
f 15/297/50 23/90/51 28/262/52 54/180/49 
f 46/207/54 33/298/55 38/84/56 44/77/53 
f 44/190/58 18/311/59 42/25/60 45/301/57 
f 17/48/61 39/89/62 7/52/63 
f 3/41/64 11/92/65 4/78/66 
f 7/1/67 6/93/68 2/58/69 
f 36/118/70 57/124/71 35/70/72 
f 37/133/73 15/105/74 54/113/75 
f 20/149/76 50/37/77 51/74/78 
f 22/96/79 47/152/80 5/54/81 
f 12/3/82 11/4/83 3/157/84 
f 7/51/85 2/60/86 3/158/87 
f 24/125/88 26/145/89 12/163/90 
f 49/140/91 48/169/92 36/164/93 
f 50/172/94 10/61/95 1/138/96 
f 11/91/97 51/174/98 4/20/99 
f 48/167/100 46/26/101 32/183/102 
f 26/144/103 11/186/104 12/162/105 
f 40/110/106 43/122/107 15/192/108 
f 46/64/109 31/198/110 32/182/111 
f 33/156/112 17/117/113 9/202/114 
f 48/56/115 13/205/116 39/47/117 
f 46/206/118 48/55/119 39/14/120 
f 33/44/121 39/209/122 17/83/123 
f 30/115/124 25/128/125 52/216/126 
f 27/199/127 52/217/128 24/29/129 
f 45/43/130 41/160/131 43/219/132 
f 9/201/133 17/116/134 7/228/135 
f 18/146/136 9/57/137 8/80/138 
f 9/200/139 7/227/140 8/230/141 
f 27/97/142 53/81/143 41/231/144 
f 41/232/145 55/82/146 27/98/147 
f 15/193/148 43/121/149 41/235/150 
f 29/236/151 43/120/152 40/35/153 
f 48/170/154 57/239/155 36/166/156 
f 48/168/157 32/184/158 57/240/159 
f 13/86/160 22/241/161 6/21/162 
f 22/24/163 5/95/164 6/50/165 
f 21/67/166 19/5/167 20/71/168 
f 20/243/169 10/212/170 50/76/171 
f 19/224/172 10/211/173 20/244/174 
f 40/109/175 15/69/176 37/13/177 
f 49/247/178 47/99/179 22/126/180 
f 48/15/181 49/249/182 13/203/183 
f 49/250/184 22/242/185 13/204/186 
f 6/49/187 5/255/188 2/220/189 
f 27/257/190 24/252/191 2/221/192 
f 27/259/193 2/222/194 5/256/195 
f 14/10/196 54/181/197 28/130/198 
f 46/63/199 44/263/200 31/196/201 
f 44/264/202 29/45/203 31/197/204 
f 10/2/205 53/266/206 1/137/207 
f 23/189/208 53/267/209 19/223/210 
f 53/268/211 10/213/212 19/225/213 
f 41/234/214 53/269/215 23/188/216 
f 53/270/217 5/254/218 1/40/219 
f 53/271/220 27/258/221 5/253/222 
f 35/104/223 34/273/224 16/176/225 
f 34/142/226 14/132/227 16/177/228 
f 30/114/229 28/30/230 25/127/231 
f 28/261/232 21/135/233 25/275/234 
f 38/276/235 9/102/236 18/33/237 
f 38/277/238 33/155/239 9/101/240 
f 26/278/241 20/148/242 51/16/243 
f 26/279/244 51/36/245 11/185/246 
f 32/19/247 31/73/248 56/281/249 
f 57/238/250 32/75/251 56/282/252 
f 4/285/253 50/173/254 1/139/255 
f 51/175/256 50/171/257 4/286/258 
f 49/141/259 36/165/260 55/287/261 
f 36/119/262 35/214/263 55/290/264 
f 35/292/265 30/32/266 52/107/267 
f 35/293/268 52/108/269 27/8/270 
f 35/294/271 16/66/272 30/179/273 
f 27/46/274 55/291/275 35/295/276 
f 15/296/277 41/233/278 23/187/279 
f 46/208/280 39/210/281 33/299/282 
f 45/300/283 42/111/284 47/34/285 
f 49/248/286 45/302/287 47/100/288 
f 45/303/289 49/65/290 55/288/291 
f 45/304/292 55/289/293 41/161/294 
f 47/151/295 1/306/296 5/53/297 
f 47/150/298 42/195/299 1/308/300 
f 1/309/301 8/39/302 4/284/303 
f 44/191/304 38/154/305 18/310/306 
f 18/147/307 8/38/308 1/305/309 
f 42/194/310 18/312/311 1/307/312 
