# Blender v2.79 (sub 0) OBJ File: ''
# www.blender.org
mtllib cup.mtl
o Object
v -0.361683 1.008295 0.000000
v -0.289267 1.008266 0.000000
v -0.233941 1.008245 -0.170258
v -0.292526 1.008266 -0.212824
v -0.089108 1.008187 -0.275486
v -0.111485 1.008194 -0.344361
v 0.089912 1.008114 -0.275486
v 0.112289 1.008107 -0.344361
v 0.234745 1.008056 -0.170258
v 0.293329 1.008035 -0.212824
v 0.290063 1.008035 0.000000
v 0.362480 1.008006 0.000000
v 0.234745 1.008056 0.170258
v 0.293329 1.008035 0.212824
v 0.089912 1.008114 0.275486
v 0.112289 1.008107 0.344361
v -0.089108 1.008187 0.275486
v -0.111485 1.008194 0.344361
v -0.233941 1.008245 0.170258
v -0.292526 1.008266 0.212824
v -0.253595 -0.020074 0.000000
v -0.205192 -0.020096 -0.148975
v -0.078463 -0.020146 -0.241052
v 0.078188 -0.020204 -0.241052
v 0.204916 -0.020255 -0.148975
v 0.253319 -0.020277 0.000000
v 0.204916 -0.020255 0.148975
v 0.078188 -0.020204 0.241052
v -0.078463 -0.020146 0.241052
v -0.205192 -0.020096 0.148975
v -0.202903 -0.020096 0.000000
v -0.164175 -0.020110 -0.119183
v -0.062792 -0.020153 -0.192845
v 0.062524 -0.020197 -0.192845
v 0.163907 -0.020240 -0.119183
v 0.202628 -0.020255 0.000000
v 0.163907 -0.020240 0.119183
v 0.062524 -0.020197 0.192845
v -0.062792 -0.020153 0.192845
v -0.164175 -0.020110 0.119183
vt 0.000000 0.000000
vt 0.000000 0.000000
vt 0.100000 0.000000
vt 0.100000 0.000000
vt 0.200000 0.000000
vt 0.200000 0.000000
vt 0.300000 0.000000
vt 0.300000 0.000000
vt 0.400000 0.000000
vt 0.400000 0.000000
vt 0.500000 0.000000
vt 0.500000 0.000000
vt 0.600000 0.000000
vt 0.600000 0.000000
vt 0.700000 0.000000
vt 0.700000 0.000000
vt 0.800000 0.000000
vt 0.800000 0.000000
vt 0.900000 0.000000
vt 0.900000 0.000000
vt -0.100000 0.000000
vt -0.100000 0.000000
vt -0.000000 1.000000
vt 0.099950 1.000000
vt 0.199920 1.000000
vt 0.299920 1.000000
vt 0.399950 1.000000
vt 0.500000 1.000000
vt 0.600050 1.000000
vt 0.700080 1.000000
vt 0.800080 1.000000
vt 0.900050 1.000000
vt -0.099950 1.000000
vt 0.000000 1.000000
vt 0.099940 1.000000
vt 0.199910 1.000000
vt 0.299900 1.000000
vt 0.399940 1.000000
vt 0.500000 1.000000
vt 0.600060 1.000000
vt 0.700090 1.000000
vt 0.800090 1.000000
vt 0.900060 1.000000
vt -0.099940 1.000000
vn 0.0004 1.0000 -0.0000
vn -1.0000 0.0004 0.0000
vn -0.8090 0.0003 -0.5878
vn -0.3090 0.0001 -0.9511
vn 0.3090 -0.0001 -0.9511
vn 0.8090 -0.0003 -0.5878
vn 1.0000 -0.0004 -0.0000
vn 0.8090 -0.0003 0.5878
vn 0.3090 -0.0001 0.9511
vn -0.3090 0.0001 0.9511
vn -0.8090 0.0003 0.5878
vn -0.0004 -1.0000 0.0000
usemtl Tube_material_2_6f18826f-7790-4feb-8673-f6a91d5f3fda
s 1
f 1/1/1 2/2/1 3/3/1 4/4/1
f 4/4/1 3/3/1 5/5/1 6/6/1
f 6/6/1 5/5/1 7/7/1 8/8/1
f 8/8/1 7/7/1 9/9/1 10/10/1
f 10/10/1 9/9/1 11/11/1 12/12/1
f 12/12/1 11/11/1 13/13/1 14/14/1
f 14/14/1 13/13/1 15/15/1 16/16/1
f 16/16/1 15/15/1 17/17/1 18/18/1
f 18/18/1 17/17/1 19/19/1 20/20/1
f 20/21/1 19/22/1 2/2/1 1/1/1
f 21/23/2 1/1/2 4/4/3 22/24/3
f 22/24/3 4/4/3 6/6/4 23/25/4
f 23/25/4 6/6/4 8/8/5 24/26/5
f 24/26/5 8/8/5 10/10/6 25/27/6
f 25/27/6 10/10/6 12/12/7 26/28/7
f 26/28/7 12/12/7 14/14/8 27/29/8
f 27/29/8 14/14/8 16/16/9 28/30/9
f 28/30/9 16/16/9 18/18/10 29/31/10
f 29/31/10 18/18/10 20/20/11 30/32/11
f 30/33/11 20/21/11 1/1/2 21/23/2
f 31/34/12 21/23/12 22/24/12 32/35/12
f 32/35/12 22/24/12 23/25/12 33/36/12
f 33/36/12 23/25/12 24/26/12 34/37/12
f 34/37/12 24/26/12 25/27/12 35/38/12
f 35/38/12 25/27/12 26/28/12 36/39/12
f 36/39/12 26/28/12 27/29/12 37/40/12
f 37/40/12 27/29/12 28/30/12 38/41/12
f 38/41/12 28/30/12 29/31/12 39/42/12
f 39/42/12 29/31/12 30/32/12 40/43/12
f 40/44/12 30/33/12 21/23/12 31/34/12
f 2/2/7 31/34/7 32/35/8 3/3/8
f 3/3/8 32/35/8 33/36/9 5/5/9
f 5/5/9 33/36/9 34/37/10 7/7/10
f 7/7/10 34/37/10 35/38/11 9/9/11
f 9/9/11 35/38/11 36/39/2 11/11/2
f 11/11/2 36/39/2 37/40/3 13/13/3
f 13/13/3 37/40/3 38/41/4 15/15/4
f 15/15/4 38/41/4 39/42/5 17/17/5
f 17/17/5 39/42/5 40/43/6 19/19/6
f 19/22/6 40/44/6 31/34/7 2/2/7
