# Vectary OBJ Export units=mm
mtllib cup.mtl
o 000_Object
g Object
usemtl Tube material 2_6f18826f-7790-4feb-8673-f6a91d5f3fda
v -32.305 23.511 139.229
v -40.395 29.389 139.232
v -49.945 0.000 139.236
v -39.945 0.000 139.232
v -12.305 38.042 139.221
v -15.395 47.553 139.222
v 12.416 38.042 139.211
v 15.506 47.553 139.210
v 32.416 23.511 139.203
v 40.506 29.389 139.200
v 40.055 0.000 139.200
v 50.055 0.000 139.196
v 32.416 -23.511 139.203
v 40.506 -29.389 139.200
v 12.416 -38.042 139.211
v 15.506 -47.553 139.210
v -12.305 -38.042 139.221
v -15.395 -47.553 139.222
v -32.305 -23.511 139.229
v -40.395 -29.389 139.232
v -28.335 20.572 -2.775
v -35.019 0.000 -2.772
v -10.835 33.287 -2.782
v 10.797 33.287 -2.790
v 28.297 20.572 -2.797
v 34.981 0.000 -2.800
v 28.297 -20.572 -2.797
v 10.797 -33.287 -2.790
v -10.835 -33.287 -2.782
v -28.335 -20.572 -2.775
v -22.671 16.458 -2.777
v -28.019 0.000 -2.775
v -8.671 26.630 -2.783
v 8.634 26.630 -2.789
v 22.634 16.458 -2.795
v 27.981 0.000 -2.797
v 22.634 -16.458 -2.795
v 8.634 -26.630 -2.789
v -8.671 -26.630 -2.783
v -22.671 -16.458 -2.777
vt 0.10000 0.00000
vt 0.00000 0.00000
vt 0.00000 0.00000
vt 0.10000 0.00000
vt 0.20000 0.00000
vt 0.20000 0.00000
vt 0.30000 0.00000
vt 0.30000 0.00000
vt 0.40000 0.00000
vt 0.40000 0.00000
vt 0.50000 0.00000
vt 0.50000 0.00000
vt 0.60000 0.00000
vt 0.60000 0.00000
vt 0.70000 0.00000
vt 0.70000 0.00000
vt 0.80000 0.00000
vt 0.80000 0.00000
vt 0.90000 0.00000
vt 0.90000 0.00000
vt -0.10000 0.00000
vt -0.10000 0.00000
vt 0.09995 1.00000
vt -0.00000 1.00000
vt 0.19992 1.00000
vt 0.29992 1.00000
vt 0.39995 1.00000
vt 0.50000 1.00000
vt 0.60005 1.00000
vt 0.70008 1.00000
vt 0.80008 1.00000
vt 0.90005 1.00000
vt -0.09995 1.00000
vt -0.10000 0.00000
vt 0.09994 1.00000
vt 0.00000 1.00000
vt 0.19991 1.00000
vt 0.29990 1.00000
vt 0.39994 1.00000
vt 0.50000 1.00000
vt 0.60006 1.00000
vt 0.70009 1.00000
vt 0.80009 1.00000
vt 0.90006 1.00000
vt -0.09994 1.00000
vt -0.09995 1.00000
vt -0.10000 0.00000
vt -0.09994 1.00000
vn 0.00040 0.00000 1.00000
vn 0.00040 0.00000 1.00000
vn 0.00040 0.00000 1.00000
vn 0.00040 0.00000 1.00000
vn 0.00040 0.00000 1.00000
vn 0.00040 0.00000 1.00000
vn 0.00040 0.00000 1.00000
vn 0.00040 0.00000 1.00000
vn 0.00040 0.00000 1.00000
vn 0.00040 0.00000 1.00000
vn 0.00040 0.00000 1.00000
vn 0.00040 0.00000 1.00000
vn 0.00040 0.00000 1.00000
vn 0.00040 0.00000 1.00000
vn 0.00040 0.00000 1.00000
vn 0.00040 0.00000 1.00000
vn 0.00040 0.00000 1.00000
vn 0.00040 0.00000 1.00000
vn 0.00040 0.00000 1.00000
vn 0.00040 0.00000 1.00000
vn 0.00040 0.00000 1.00000
vn 0.00040 0.00000 1.00000
vn 0.00040 0.00000 1.00000
vn 0.00040 0.00000 1.00000
vn 0.00040 0.00000 1.00000
vn 0.00040 0.00000 1.00000
vn 0.00040 0.00000 1.00000
vn 0.00040 0.00000 1.00000
vn 0.00040 0.00000 1.00000
vn 0.00040 0.00000 1.00000
vn 0.00040 0.00000 1.00000
vn 0.00040 0.00000 1.00000
vn 0.00040 0.00000 1.00000
vn 0.00040 0.00000 1.00000
vn 0.00040 0.00000 1.00000
vn 0.00040 0.00000 1.00000
vn 0.00040 0.00000 1.00000
vn 0.00040 0.00000 1.00000
vn 0.00040 0.00000 1.00000
vn 0.00040 0.00000 1.00000
vn -0.80902 0.58779 0.00032
vn -1.00000 0.00000 0.00040
vn -1.00000 0.00000 0.00040
vn -0.80902 0.58779 0.00032
vn -0.30902 0.95106 0.00012
vn -0.80902 0.58779 0.00032
vn -0.80902 0.58779 0.00032
vn -0.30902 0.95106 0.00012
vn 0.30902 0.95106 -0.00012
vn -0.30902 0.95106 0.00012
vn -0.30902 0.95106 0.00012
vn 0.30902 0.95106 -0.00012
vn 0.80902 0.58779 -0.00032
vn 0.30902 0.95106 -0.00012
vn 0.30902 0.95106 -0.00012
vn 0.80902 0.58779 -0.00032
vn 1.00000 -0.00000 -0.00040
vn 0.80902 0.58779 -0.00032
vn 0.80902 0.58779 -0.00032
vn 1.00000 -0.00000 -0.00040
vn 0.80902 -0.58779 -0.00032
vn 1.00000 -0.00000 -0.00040
vn 1.00000 -0.00000 -0.00040
vn 0.80902 -0.58779 -0.00032
vn 0.30902 -0.95106 -0.00012
vn 0.80902 -0.58779 -0.00032
vn 0.80902 -0.58779 -0.00032
vn 0.30902 -0.95106 -0.00012
vn -0.30902 -0.95106 0.00012
vn 0.30902 -0.95106 -0.00012
vn 0.30902 -0.95106 -0.00012
vn -0.30902 -0.95106 0.00012
vn -0.80902 -0.58779 0.00032
vn -0.30902 -0.95106 0.00012
vn -0.30902 -0.95106 0.00012
vn -0.80902 -0.58779 0.00032
vn -1.00000 0.00000 0.00040
vn -0.80902 -0.58779 0.00032
vn -0.80902 -0.58779 0.00032
vn -1.00000 0.00000 0.00040
vn -0.00040 0.00000 -1.00000
vn -0.00040 0.00000 -1.00000
vn -0.00040 0.00000 -1.00000
vn -0.00040 0.00000 -1.00000
vn -0.00040 0.00000 -1.00000
vn -0.00040 0.00000 -1.00000
vn -0.00040 0.00000 -1.00000
vn -0.00040 0.00000 -1.00000
vn -0.00040 0.00000 -1.00000
vn -0.00040 0.00000 -1.00000
vn -0.00040 0.00000 -1.00000
vn -0.00040 0.00000 -1.00000
vn -0.00040 0.00000 -1.00000
vn -0.00040 0.00000 -1.00000
vn -0.00040 0.00000 -1.00000
vn -0.00040 0.00000 -1.00000
vn -0.00040 0.00000 -1.00000
vn -0.00040 0.00000 -1.00000
vn -0.00040 0.00000 -1.00000
vn -0.00040 0.00000 -1.00000
vn -0.00040 0.00000 -1.00000
vn -0.00040 0.00000 -1.00000
vn -0.00040 0.00000 -1.00000
vn -0.00040 0.00000 -1.00000
vn -0.00040 0.00000 -1.00000
vn -0.00040 0.00000 -1.00000
vn -0.00040 0.00000 -1.00000
vn -0.00040 0.00000 -1.00000
vn -0.00040 0.00000 -1.00000
vn -0.00040 0.00000 -1.00000
vn -0.00040 0.00000 -1.00000
vn -0.00040 0.00000 -1.00000
vn -0.00040 0.00000 -1.00000
vn -0.00040 0.00000 -1.00000
vn -0.00040 0.00000 -1.00000
vn -0.00040 0.00000 -1.00000
vn -0.00040 0.00000 -1.00000
vn -0.00040 0.00000 -1.00000
vn -0.00040 0.00000 -1.00000
vn -0.00040 0.00000 -1.00000
vn 0.80902 -0.58779 -0.00032
vn 1.00000 0.00000 -0.00040
vn 1.00000 0.00000 -0.00040
vn 0.80902 -0.58779 -0.00032
vn 0.30902 -0.95106 -0.00012
vn 0.80902 -0.58779 -0.00032
vn 0.80902 -0.58779 -0.00032
vn 0.30902 -0.95106 -0.00012
vn -0.30902 -0.95106 0.00012
vn 0.30902 -0.95106 -0.00012
vn 0.30902 -0.95106 -0.00012
vn -0.30902 -0.95106 0.00012
vn -0.80902 -0.58779 0.00032
vn -0.30902 -0.95106 0.00012
vn -0.30902 -0.95106 0.00012
vn -0.80902 -0.58779 0.00032
vn -1.00000 -0.00000 0.00040
vn -0.80902 -0.58779 0.00032
vn -0.80902 -0.58779 0.00032
vn -1.00000 -0.00000 0.00040
vn -0.80902 0.58779 0.00032
vn -1.00000 -0.00000 0.00040
vn -1.00000 -0.00000 0.00040
vn -0.80902 0.58779 0.00032
vn -0.30902 0.95106 0.00012
vn -0.80902 0.58779 0.00032
vn -0.80902 0.58779 0.00032
vn -0.30902 0.95106 0.00012
vn 0.30902 0.95106 -0.00012
vn -0.30902 0.95106 0.00012
vn -0.30902 0.95106 0.00012
vn 0.30902 0.95106 -0.00012
vn 0.80902 0.58779 -0.00032
vn 0.30902 0.95106 -0.00012
vn 0.30902 0.95106 -0.00012
vn 0.80902 0.58779 -0.00032
vn 1.00000 0.00000 -0.00040
vn 0.80902 0.58779 -0.00032
vn 0.80902 0.58779 -0.00032
vn 1.00000 0.00000 -0.00040
f 3/2/2 4/3/3 1/4/4 2/1/1 
f 2/1/6 1/4/7 5/6/8 6/5/5 
f 6/5/10 5/6/11 7/8/12 8/7/9 
f 8/7/14 7/8/15 9/10/16 10/9/13 
f 10/9/18 9/10/19 11/12/20 12/11/17 
f 12/11/22 11/12/23 13/14/24 14/13/21 
f 14/13/26 13/14/27 15/16/28 16/15/25 
f 16/15/30 15/16/31 17/18/32 18/17/29 
f 18/17/34 17/18/35 19/20/36 20/19/33 
f 20/21/38 19/22/39 4/3/40 3/2/37 
f 22/24/42 3/2/43 2/1/44 21/23/41 
f 21/23/46 2/1/47 6/5/48 23/25/45 
f 23/25/50 6/5/51 8/7/52 24/26/49 
f 24/26/54 8/7/55 10/9/56 25/27/53 
f 25/27/58 10/9/59 12/11/60 26/28/57 
f 26/28/62 12/11/63 14/13/64 27/29/61 
f 27/29/66 14/13/67 16/15/68 28/30/65 
f 28/30/70 16/15/71 18/17/72 29/31/69 
f 29/31/74 18/17/75 20/19/76 30/32/73 
f 30/33/78 20/34/79 3/2/80 22/24/77 
f 32/36/82 22/24/83 21/23/84 31/35/81 
f 31/35/86 21/23/87 23/25/88 33/37/85 
f 33/37/90 23/25/91 24/26/92 34/38/89 
f 34/38/94 24/26/95 25/27/96 35/39/93 
f 35/39/98 25/27/99 26/28/100 36/40/97 
f 36/40/102 26/28/103 27/29/104 37/41/101 
f 37/41/106 27/29/107 28/30/108 38/42/105 
f 38/42/110 28/30/111 29/31/112 39/43/109 
f 39/43/114 29/31/115 30/32/116 40/44/113 
f 40/45/118 30/46/119 22/24/120 32/36/117 
f 4/3/122 32/36/123 31/35/124 1/4/121 
f 1/4/126 31/35/127 33/37/128 5/6/125 
f 5/6/130 33/37/131 34/38/132 7/8/129 
f 7/8/134 34/38/135 35/39/136 9/10/133 
f 9/10/138 35/39/139 36/40/140 11/12/137 
f 11/12/142 36/40/143 37/41/144 13/14/141 
f 13/14/146 37/41/147 38/42/148 15/16/145 
f 15/16/150 38/42/151 39/43/152 17/18/149 
f 17/18/154 39/43/155 40/44/156 19/20/153 
f 19/47/158 40/48/159 32/36/160 4/3/157 
