# Blender v2.79 (sub 0) OBJ File: ''
# www.blender.org
mtllib Mesh_Trout.mtl
o Geo_Trout
v 0.005748 -0.206495 0.121342
v 0.112965 -0.098993 0.121342
v 0.112965 -0.094143 0.408747
v 0.005748 -0.201646 0.408747
v 0.112965 0.116013 0.121342
v 0.112965 0.116013 0.408747
v 0.005748 0.223516 0.121342
v 0.005748 0.223516 0.408747
v 0.095577 0.093903 -0.147761
v 0.005748 0.183971 -0.147761
v 0.095577 -0.086233 -0.147761
v 0.005748 -0.176301 -0.147761
v 0.083752 0.077371 -0.317647
v 0.005748 0.155583 -0.317647
v 0.083752 -0.079053 -0.317647
v 0.005748 -0.157266 -0.317647
v 0.056626 0.061083 -0.537409
v 0.005748 0.112097 -0.537409
v 0.056626 -0.040945 -0.537409
v 0.005748 -0.091959 -0.537409
v 0.050366 0.056365 -0.666772
v 0.005748 0.101102 -0.666772
v 0.050366 -0.033110 -0.666772
v 0.005748 -0.077847 -0.666772
v 0.017769 0.072645 -0.805487
v 0.005748 0.126500 -0.774977
v 0.017769 -0.049389 -0.805487
v 0.005748 -0.104182 -0.778973
v 0.099776 -0.065566 0.633354
v 0.005748 -0.150539 0.645654
v 0.095854 0.106076 0.673264
v 0.005748 0.174704 0.744996
v 0.005748 -0.120357 0.789045
v 0.082783 0.093985 0.789045
v 0.082783 -0.048910 0.789045
v 0.005748 0.165432 0.789045
v 0.064292 -0.039453 0.927760
v 0.005748 -0.092092 0.927760
v 0.064292 -0.003372 0.959762
v 0.005748 0.118464 0.927760
v 0.064292 0.065825 0.927760
v 0.040811 -0.033156 1.024393
v 0.005748 -0.049865 1.024393
v 0.040811 -0.012541 1.024393
v 0.005748 0.064847 1.024393
v 0.040811 0.040591 1.024393
v 0.017769 0.141410 -1.029926
v 0.005748 0.241579 -1.029926
v 0.017769 -0.058928 -1.010916
v 0.005748 -0.159097 -1.054862
v 0.040811 0.005166 1.024393
v 0.005748 -0.012541 0.927761
v 0.005748 -0.012541 1.038107
v 0.005748 0.019193 1.057555
v 0.005748 0.141410 -1.029926
v 0.005748 -0.058928 -1.010916
v -0.101469 -0.094143 0.408747
v -0.101469 -0.098993 0.121342
v -0.101469 0.116013 0.408747
v -0.101469 0.116013 0.121342
v -0.084081 0.093903 -0.147761
v -0.084081 -0.086233 -0.147761
v -0.072256 0.077371 -0.317647
v -0.072256 -0.079053 -0.317647
v -0.045130 0.061083 -0.537409
v -0.045130 -0.040945 -0.537409
v -0.038870 0.056365 -0.666772
v -0.038870 -0.033110 -0.666772
v -0.006273 0.072645 -0.805487
v -0.006273 -0.049389 -0.805487
v -0.088280 -0.065566 0.633354
v -0.084358 0.106076 0.673264
v -0.071287 -0.048910 0.789045
v -0.071287 0.093985 0.789045
v -0.052796 -0.039453 0.927760
v -0.052796 -0.003372 0.959762
v -0.052796 0.065825 0.927760
v -0.029314 -0.033156 1.024393
v -0.029314 -0.012541 1.024393
v -0.029314 0.040591 1.024393
v -0.006273 0.141410 -1.029926
v -0.006273 -0.058928 -1.010916
v -0.029314 0.005166 1.024393
v -0.007760 0.204848 0.263704
v 0.019256 0.204848 0.263704
v 0.010502 0.418983 0.016907
v 0.000994 0.418983 0.016907
v 0.010502 0.221877 -0.168475
v 0.000994 0.221877 -0.168475
v 0.019256 0.170660 -0.029617
v -0.007760 0.170660 -0.029617
v 0.016905 -0.145996 -0.292886
v -0.005457 -0.146029 -0.292899
v 0.002104 -0.302172 -0.559235
v 0.009975 -0.302160 -0.559231
v 0.001875 -0.114427 -0.603278
v 0.009745 -0.114416 -0.603274
v -0.005458 -0.085848 -0.481310
v 0.016904 -0.085815 -0.481297
v -0.000285 0.110498 -0.426852
v 0.011781 0.110498 -0.426852
v 0.007872 0.159382 -0.586956
v 0.003624 0.159382 -0.586956
v 0.007872 0.122780 -0.619880
v 0.003624 0.122780 -0.619880
v 0.011781 0.095228 -0.531365
v -0.000285 0.095228 -0.531365
v 0.069870 -0.067749 0.679829
v 0.049356 -0.085216 0.681805
v 0.209008 -0.264245 0.519903
v 0.216229 -0.258097 0.519207
v 0.103259 -0.133860 0.500476
v 0.110480 -0.127712 0.499781
v 0.047119 -0.083362 0.615860
v 0.067633 -0.065895 0.613883
v -0.058374 -0.067749 0.679829
v -0.204733 -0.258097 0.519207
v -0.197512 -0.264245 0.519903
v -0.037860 -0.085216 0.681805
v -0.098984 -0.127712 0.499781
v -0.091763 -0.133860 0.500476
v -0.056137 -0.065895 0.613883
v -0.035623 -0.083362 0.615860
v 0.050025 -0.156594 0.139888
v 0.027005 -0.170644 0.141478
v 0.160861 -0.367023 -0.038673
v 0.168963 -0.362078 -0.039232
v 0.078234 -0.212374 -0.039866
v 0.086336 -0.207429 -0.040425
v 0.026617 -0.160296 0.054655
v 0.049637 -0.146246 0.053065
v -0.038529 -0.156594 0.139888
v -0.157467 -0.362078 -0.039232
v -0.149365 -0.367023 -0.038673
v -0.015509 -0.170644 0.141478
v -0.074840 -0.207429 -0.040425
v -0.066738 -0.212374 -0.039866
v -0.038141 -0.146246 0.053065
v -0.015121 -0.160296 0.054655
v 0.058840 0.029307 0.872154
v 0.058840 0.061056 0.872154
v 0.082724 0.061056 0.873923
v 0.082724 0.029307 0.873923
v 0.056809 0.076931 0.899574
v 0.080693 0.076931 0.901343
v 0.054778 0.061056 0.926995
v 0.078662 0.061056 0.928764
v 0.054778 0.029307 0.926995
v 0.078662 0.029307 0.928764
v 0.056809 0.013432 0.899574
v 0.080693 0.013432 0.901343
v 0.080693 0.045182 0.901343
v -0.047344 0.029307 0.872154
v -0.071228 0.029307 0.873923
v -0.071228 0.061056 0.873923
v -0.047344 0.061056 0.872154
v -0.069197 0.076931 0.901343
v -0.045313 0.076931 0.899574
v -0.067166 0.061056 0.928764
v -0.043282 0.061056 0.926995
v -0.067166 0.029307 0.928764
v -0.043282 0.029307 0.926995
v -0.069197 0.013432 0.901343
v -0.045313 0.013432 0.899574
v -0.069197 0.045182 0.901343
vn 0.7080 -0.7061 0.0119
vn 1.0000 -0.0000 0.0000
vn 0.7080 0.7062 0.0000
vn 0.7043 0.7024 -0.1032
vn 0.7037 0.7019 -0.1103
vn 0.7032 0.7013 -0.1167
vn 0.9979 -0.0000 -0.0645
vn 0.9978 -0.0000 -0.0669
vn 0.9976 0.0000 -0.0693
vn 0.7058 -0.7040 -0.0790
vn 0.7058 -0.7040 -0.0789
vn 0.7032 0.7013 -0.1172
vn 0.9976 -0.0000 -0.0694
vn 0.7012 0.6994 -0.1384
vn 0.9925 -0.0000 -0.1225
vn 0.6930 -0.6911 -0.2054
vn 0.7068 0.7049 -0.0599
vn 0.9988 0.0000 -0.0483
vn 0.7060 -0.7041 -0.0768
vn 0.8629 0.5046 -0.0287
vn 0.9735 0.0000 -0.2288
vn 0.8656 -0.4999 -0.0275
vn 0.6887 -0.7109 0.1424
vn 0.9981 0.0038 0.0617
vn 0.6813 0.7264 0.0904
vn 0.6736 -0.7233 0.1522
vn 0.6724 -0.7246 0.1511
vn 0.6731 -0.7238 0.1518
vn 0.9939 -0.0016 0.1101
vn 0.9942 -0.0002 0.1080
vn 0.9942 -0.0001 0.1078
vn 0.6723 0.7245 0.1518
vn 0.6702 -0.7274 0.1474
vn 0.6681 -0.7300 0.1438
vn 0.9942 0.0000 0.1077
vn 0.6558 0.7165 0.2377
vn 0.5741 -0.7749 0.2643
vn 0.9493 -0.1545 0.2737
vn 0.5909 0.7193 0.3653
vn 0.9881 0.1434 0.0550
vn 0.9876 -0.1556 0.0208
vn 0.9871 0.0672 0.1452
vn 0.9825 -0.1236 0.1394
vn 0.9539 0.0878 0.2869
vn -0.1048 0.9938 0.0380
vn 0.2381 -0.2237 0.9451
vn -0.0484 -0.9792 0.1970
vn 0.5417 0.3182 0.7780
vn 0.0000 0.0000 -1.0000
vn 0.0000 0.4018 -0.9157
vn 0.0000 -0.0945 -0.9955
vn -0.7080 -0.7061 0.0119
vn -1.0000 0.0000 0.0000
vn -0.7080 0.7062 0.0000
vn -0.7043 0.7024 -0.1032
vn -0.7032 0.7013 -0.1167
vn -0.7037 0.7019 -0.1103
vn -0.9979 0.0000 -0.0645
vn -0.9976 0.0000 -0.0693
vn -0.9978 -0.0000 -0.0669
vn -0.7058 -0.7040 -0.0790
vn -0.7058 -0.7040 -0.0789
vn -0.7032 0.7013 -0.1172
vn -0.9976 -0.0000 -0.0694
vn -0.7012 0.6994 -0.1384
vn -0.9925 -0.0000 -0.1225
vn -0.6930 -0.6911 -0.2054
vn -0.7068 0.7049 -0.0599
vn -0.9988 0.0000 -0.0483
vn -0.7060 -0.7041 -0.0768
vn -0.8629 0.5046 -0.0287
vn -0.9735 0.0000 -0.2288
vn -0.8656 -0.4999 -0.0275
vn -0.6887 -0.7109 0.1424
vn -0.9981 0.0038 0.0617
vn -0.6813 0.7264 0.0904
vn -0.6736 -0.7233 0.1522
vn -0.6731 -0.7238 0.1518
vn -0.6724 -0.7246 0.1511
vn -0.9939 -0.0016 0.1101
vn -0.9942 -0.0001 0.1078
vn -0.9942 -0.0002 0.1080
vn -0.6723 0.7245 0.1518
vn -0.6681 -0.7300 0.1438
vn -0.6702 -0.7274 0.1474
vn -0.9942 0.0000 0.1077
vn -0.6558 0.7165 0.2377
vn -0.5741 -0.7749 0.2643
vn -0.9493 -0.1545 0.2737
vn -0.5909 0.7193 0.3653
vn -0.9881 0.1434 0.0550
vn -0.9876 -0.1556 0.0208
vn -0.9871 0.0672 0.1452
vn -0.9825 -0.1236 0.1394
vn -0.9539 0.0878 0.2869
vn 0.1048 0.9938 0.0380
vn -0.2381 -0.2237 0.9451
vn 0.0484 -0.9792 0.1970
vn -0.5417 0.3182 0.7780
vn 0.0000 0.7553 0.6554
vn 0.0000 0.6851 -0.7284
vn 0.0000 -0.9382 -0.3461
vn 0.9991 0.0387 -0.0187
vn -0.9991 0.0387 -0.0187
vn 0.0010 -0.8627 0.5058
vn 0.0009 -0.2284 -0.9736
vn -0.0013 0.9736 -0.2282
vn -0.9993 -0.0255 -0.0262
vn 0.9994 -0.0229 -0.0254
vn 0.0000 0.9564 0.2920
vn 0.0000 0.6688 -0.7435
vn 0.0000 -0.9548 -0.2972
vn 0.9988 0.0459 -0.0173
vn -0.9988 0.0459 -0.0173
vn 0.4077 -0.3851 0.8279
vn 0.0179 -0.1331 -0.9909
vn -0.5729 0.6111 -0.5462
vn -0.7574 -0.6510 -0.0505
vn 0.7836 0.6206 -0.0299
vn -0.4077 -0.3851 0.8279
vn -0.0179 -0.1331 -0.9909
vn 0.5729 0.6111 -0.5462
vn 0.7574 -0.6510 -0.0505
vn -0.7836 0.6206 -0.0299
vn 0.3539 -0.4897 0.7968
vn -0.0484 -0.0336 -0.9983
vn -0.4444 0.6596 -0.6061
vn -0.8571 -0.4991 -0.1273
vn 0.8824 0.4683 0.0457
vn -0.3539 -0.4897 0.7968
vn 0.0484 -0.0336 -0.9983
vn 0.4444 0.6596 -0.6061
vn 0.8571 -0.4991 -0.1273
vn -0.8824 0.4683 0.0457
vn 0.0739 0.0000 -0.9973
vn 0.0369 0.8660 -0.4986
vn -0.0369 0.8660 0.4986
vn -0.0739 0.0000 0.9973
vn -0.0369 -0.8660 0.4986
vn 0.0369 -0.8660 -0.4986
vn 0.9973 0.0000 0.0739
vn -0.0739 0.0000 -0.9973
vn -0.0369 0.8660 -0.4986
vn 0.0369 0.8660 0.4986
vn 0.0739 0.0000 0.9973
vn 0.0369 -0.8660 0.4986
vn -0.0369 -0.8660 -0.4986
vn -0.9973 0.0000 0.0739
usemtl lambert2SG
s 1
f 1//1 2//1 3//1 4//1
f 2//2 5//2 6//2 3//2
f 5//3 7//3 8//3 6//3
f 7//4 5//4 9//5 10//6
f 5//7 2//7 11//8 9//9
f 2//10 1//10 12//11 11//11
f 10//6 9//5 13//12 14//12
f 9//9 11//8 15//13 13//13
f 11//11 12//11 16//11 15//11
f 14//14 13//14 17//14 18//14
f 13//15 15//15 19//15 17//15
f 15//16 16//16 20//16 19//16
f 18//17 17//17 21//17 22//17
f 17//18 19//18 23//18 21//18
f 19//19 20//19 24//19 23//19
f 22//20 21//20 25//20 26//20
f 21//21 23//21 27//21 25//21
f 23//22 24//22 28//22 27//22
f 4//23 3//23 29//23 30//23
f 3//24 6//24 31//24 29//24
f 6//25 8//25 32//25 31//25
f 30//26 29//27 33//28
f 29//29 31//29 34//30 35//31
f 31//32 32//32 36//32 34//32
f 33//28 35//33 37//34 38//34
f 35//31 34//30 39//35
f 34//36 36//36 40//36 41//36
f 38//37 37//37 42//37 43//37
f 37//38 39//38 44//38 42//38
f 41//39 40//39 45//39 46//39
f 26//40 25//40 47//40 48//40
f 25//2 27//2 49//2 47//2
f 27//41 28//41 50//41 49//41
f 39//42 34//42 41//42
f 35//43 39//43 37//43
f 51//44 39//44 41//44 46//44
f 44//45 39//45 52//45 53//45
f 43//46 42//46 44//46 53//46
f 39//47 51//47 54//47 52//47
f 46//48 45//48 54//48 51//48
f 33//28 29//27 35//33
f 48//49 47//49 55//49
f 49//50 50//50 56//50
f 55//51 47//51 49//51 56//51
f 1//52 4//52 57//52 58//52
f 58//53 57//53 59//53 60//53
f 60//54 59//54 8//54 7//54
f 7//55 10//56 61//57 60//55
f 60//58 61//59 62//60 58//58
f 58//61 62//62 12//62 1//61
f 10//56 14//63 63//63 61//57
f 61//59 63//64 64//64 62//60
f 62//62 64//62 16//62 12//62
f 14//65 18//65 65//65 63//65
f 63//66 65//66 66//66 64//66
f 64//67 66//67 20//67 16//67
f 18//68 22//68 67//68 65//68
f 65//69 67//69 68//69 66//69
f 66//70 68//70 24//70 20//70
f 22//71 26//71 69//71 67//71
f 67//72 69//72 70//72 68//72
f 68//73 70//73 28//73 24//73
f 4//74 30//74 71//74 57//74
f 57//75 71//75 72//75 59//75
f 59//76 72//76 32//76 8//76
f 30//77 33//78 71//79
f 71//80 73//81 74//82 72//80
f 72//83 74//83 36//83 32//83
f 33//78 38//84 75//84 73//85
f 73//81 76//86 74//82
f 74//87 77//87 40//87 36//87
f 38//88 43//88 78//88 75//88
f 75//89 78//89 79//89 76//89
f 77//90 80//90 45//90 40//90
f 26//91 48//91 81//91 69//91
f 69//53 81//53 82//53 70//53
f 70//92 82//92 50//92 28//92
f 76//93 77//93 74//93
f 73//94 75//94 76//94
f 83//95 80//95 77//95 76//95
f 79//96 53//96 52//96 76//96
f 43//97 53//97 79//97 78//97
f 76//98 52//98 54//98 83//98
f 80//99 83//99 54//99 45//99
f 33//78 73//85 71//79
f 48//49 55//49 81//49
f 82//50 56//50 50//50
f 55//51 56//51 82//51 81//51
f 84//100 85//100 86//100 87//100
f 87//101 86//101 88//101 89//101
f 89//102 88//102 90//102 91//102
f 85//103 90//103 88//103 86//103
f 91//104 84//104 87//104 89//104
f 92//105 93//105 94//105 95//105
f 95//106 94//106 96//106 97//106
f 97//107 96//107 98//107 99//107
f 93//108 98//108 96//108 94//108
f 99//109 92//109 95//109 97//109
f 100//110 101//110 102//110 103//110
f 103//111 102//111 104//111 105//111
f 105//112 104//112 106//112 107//112
f 101//113 106//113 104//113 102//113
f 107//114 100//114 103//114 105//114
f 108//115 109//115 110//115 111//115
f 111//116 110//116 112//116 113//116
f 113//117 112//117 114//117 115//117
f 109//118 114//118 112//118 110//118
f 115//119 108//119 111//119 113//119
f 116//120 117//120 118//120 119//120
f 117//121 120//121 121//121 118//121
f 120//122 122//122 123//122 121//122
f 119//123 118//123 121//123 123//123
f 122//124 120//124 117//124 116//124
f 124//125 125//125 126//125 127//125
f 127//126 126//126 128//126 129//126
f 129//127 128//127 130//127 131//127
f 125//128 130//128 128//128 126//128
f 131//129 124//129 127//129 129//129
f 132//130 133//130 134//130 135//130
f 133//131 136//131 137//131 134//131
f 136//132 138//132 139//132 137//132
f 135//133 134//133 137//133 139//133
f 138//134 136//134 133//134 132//134
f 140//135 141//135 142//135 143//135
f 141//136 144//136 145//136 142//136
f 144//137 146//137 147//137 145//137
f 146//138 148//138 149//138 147//138
f 148//139 150//139 151//139 149//139
f 150//140 140//140 143//140 151//140
f 143//141 142//141 152//141
f 142//141 145//141 152//141
f 145//141 147//141 152//141
f 147//141 149//141 152//141
f 149//141 151//141 152//141
f 151//141 143//141 152//141
f 153//142 154//142 155//142 156//142
f 156//143 155//143 157//143 158//143
f 158//144 157//144 159//144 160//144
f 160//145 159//145 161//145 162//145
f 162//146 161//146 163//146 164//146
f 164//147 163//147 154//147 153//147
f 154//148 165//148 155//148
f 155//148 165//148 157//148
f 157//148 165//148 159//148
f 159//148 165//148 161//148
f 161//148 165//148 163//148
f 163//148 165//148 154//148
